<svg xmlns="http://www.w3.org/2000/svg" xmlns:xlink="http://www.w3.org/1999/xlink" width="500" zoomAndPan="magnify" viewBox="0 0 375 374.999991" height="500" preserveAspectRatio="xMidYMid meet" version="1.0"><defs><clipPath id="b2c1c73f63"><path d="M 176 115 L 199 115 L 199 121.261719 L 176 121.261719 Z M 176 115 " clip-rule="nonzero"/></clipPath><clipPath id="f8f50040ac"><path d="M 168.144531 108.511719 L 171 108.511719 L 171 111 L 168.144531 111 Z M 168.144531 108.511719 " clip-rule="nonzero"/></clipPath><clipPath id="9f50bd3bb3"><path d="M 205 108.511719 L 207.144531 108.511719 L 207.144531 111 L 205 111 Z M 205 108.511719 " clip-rule="nonzero"/></clipPath><clipPath id="f250cb7dad"><path d="M 176.222656 92.523438 L 198.722656 92.523438 L 198.722656 108.273438 L 176.222656 108.273438 Z M 176.222656 92.523438 " clip-rule="nonzero"/></clipPath><clipPath id="a0251b0f1b"><path d="M 190 82 L 205 82 L 205 92.316406 L 190 92.316406 Z M 190 82 " clip-rule="nonzero"/></clipPath><clipPath id="3e4e7706d6"><path d="M 189 82 L 206 82 L 206 92.316406 L 189 92.316406 Z M 189 82 " clip-rule="nonzero"/></clipPath><clipPath id="f9ce4b7c58"><path d="M 199 89 L 204 89 L 204 92.316406 L 199 92.316406 Z M 199 89 " clip-rule="nonzero"/></clipPath><clipPath id="cc0f5ff4d0"><path d="M 189 82 L 206.59375 82 L 206.59375 84 L 189 84 Z M 189 82 " clip-rule="nonzero"/></clipPath><clipPath id="3504cf2043"><path d="M 169 82 L 184 82 L 184 92.316406 L 169 92.316406 Z M 169 82 " clip-rule="nonzero"/></clipPath><clipPath id="56549199b1"><path d="M 168 82 L 184 82 L 184 92.316406 L 168 92.316406 Z M 168 82 " clip-rule="nonzero"/></clipPath><clipPath id="610540e6ad"><path d="M 177 89 L 183 89 L 183 92.316406 L 177 92.316406 Z M 177 89 " clip-rule="nonzero"/></clipPath><clipPath id="cc838b5b1c"><path d="M 188 75 L 206.59375 75 L 206.59375 81 L 188 81 Z M 188 75 " clip-rule="nonzero"/></clipPath><clipPath id="47a7d4ee96"><path d="M 166.84375 75 L 185 75 L 185 80 L 166.84375 80 Z M 166.84375 75 " clip-rule="nonzero"/></clipPath></defs><path fill="#fde35a" d="M 162.617188 71.933594 C 162.617188 78.328125 157.433594 83.507812 151.042969 83.507812 C 144.648438 83.507812 139.472656 78.328125 139.472656 71.933594 C 139.472656 65.546875 144.648438 60.363281 151.042969 60.363281 C 157.433594 60.363281 162.617188 65.546875 162.617188 71.933594 " fill-opacity="1" fill-rule="nonzero"/><path stroke-linecap="round" transform="matrix(0.0211622, 0, 0, -0.0211598, -30.462674, 405.263421)" fill="none" stroke-linejoin="round" d="M 9123.990659 15753.166991 C 9123.990659 15450.964998 8878.860257 15206.175846 8577.061908 15206.175846 C 8274.894387 15206.175846 8030.133157 15450.964998 8030.133157 15753.166991 C 8030.133157 16054.999769 8274.894387 16299.973529 8577.061908 16299.973529 C 8878.860257 16299.973529 9123.990659 16054.999769 9123.990659 15753.166991 Z M 9123.990659 15753.166991 " stroke="#000000" stroke-width="96.751999" stroke-opacity="1" stroke-miterlimit="10"/><path fill="#fde35a" d="M 207.542969 71.933594 C 207.542969 78.328125 212.730469 83.507812 219.117188 83.507812 C 225.511719 83.507812 230.695312 78.328125 230.695312 71.933594 C 230.695312 65.546875 225.511719 60.363281 219.117188 60.363281 C 212.730469 60.363281 207.542969 65.546875 207.542969 71.933594 " fill-opacity="1" fill-rule="nonzero"/><path stroke-linecap="round" transform="matrix(0.0211622, 0, 0, -0.0211598, -30.462674, 405.263421)" fill="none" stroke-linejoin="round" d="M 11246.915926 15753.166991 C 11246.915926 15450.964998 11491.861742 15206.175846 11793.844677 15206.175846 C 12096.012198 15206.175846 12340.773428 15450.964998 12340.773428 15753.166991 C 12340.773428 16054.999769 12096.012198 16299.973529 11793.844677 16299.973529 C 11491.861742 16299.973529 11246.915926 16054.999769 11246.915926 15753.166991 Z M 11246.915926 15753.166991 " stroke="#000000" stroke-width="96.751999" stroke-opacity="1" stroke-miterlimit="10"/><path fill="#000000" d="M 224.566406 62.035156 C 224.566406 83.089844 207.5 100.15625 186.445312 100.15625 C 165.390625 100.15625 148.324219 83.089844 148.324219 62.035156 L 148.324219 43.222656 C 148.324219 22.167969 165.390625 5.101562 186.445312 5.101562 C 207.5 5.101562 224.566406 22.167969 224.566406 43.222656 L 224.566406 62.035156 " fill-opacity="1" fill-rule="nonzero"/><path fill="#fde35a" d="M 224.566406 117.121094 C 278.1875 117.121094 392.976562 317.601562 241.160156 266.0625 L 224.566406 117.121094 " fill-opacity="1" fill-rule="nonzero"/><path stroke-linecap="round" transform="matrix(0.0259782, 0, 0, -0.0259753, -30.462674, 405.263421)" fill="none" stroke-linejoin="round" d="M 9817.180473 11093.100112 C 11881.258389 11093.100112 16299.921872 3374.82036 10455.936427 5358.979487 Z M 9817.180473 11093.100112 " stroke="#000000" stroke-width="78.816002" stroke-opacity="1" stroke-miterlimit="10"/><path fill="#fde35a" d="M 148.324219 117.121094 C 94.699219 117.121094 -17.949219 317.601562 133.867188 266.0625 L 148.324219 117.121094 " fill-opacity="1" fill-rule="nonzero"/><path stroke-linecap="round" transform="matrix(0.0205199, 0, 0, -0.0205176, -30.462674, 405.263421)" fill="none" stroke-linejoin="round" d="M 8712.841544 14043.672806 C 6099.528445 14043.672806 609.819592 4272.522103 8008.305429 6784.467281 Z M 8712.841544 14043.672806 " stroke="#000000" stroke-width="99.779999" stroke-opacity="1" stroke-miterlimit="10"/><path fill="#fde35a" d="M 148.324219 117.121094 L 122.816406 142.921875 L 134.386719 274.621094 L 238.511719 274.621094 L 250.074219 142.921875 L 224.566406 117.121094 L 148.324219 117.121094 " fill-opacity="1" fill-rule="nonzero"/><path stroke-linecap="round" transform="matrix(0.0205199, 0, 0, -0.0205176, -30.462674, 405.263421)" fill="none" stroke-linejoin="round" d="M 8712.841544 14043.672806 L 7469.766476 12786.177133 L 8033.623803 6367.332835 L 13107.959027 6367.332835 L 13671.435628 12786.177133 L 12428.36056 14043.672806 Z M 8712.841544 14043.672806 " stroke="#000000" stroke-width="99.779999" stroke-opacity="1" stroke-miterlimit="10"/><path fill="#fde35a" d="M 235.460938 274.621094 L 137.429688 274.621094 L 81.292969 282.160156 L 81.292969 317.347656 L 186.445312 317.347656 L 186.445312 317.339844 L 186.445312 317.347656 L 291.601562 317.347656 L 291.601562 282.160156 L 235.460938 274.621094 " fill-opacity="1" fill-rule="nonzero"/><path stroke-linecap="round" transform="matrix(0.0205199, 0, 0, -0.0205176, -30.462674, 405.263421)" fill="none" stroke-linejoin="round" d="M 12959.284965 6367.332835 L 8181.917139 6367.332835 L 5446.20017 5999.888982 L 5446.20017 4284.897155 L 10570.601052 4284.897155 L 10570.601052 4285.277926 L 10570.601052 4284.897155 L 15695.192297 4284.897155 L 15695.192297 5999.888982 Z M 12959.284965 6367.332835 " stroke="#000000" stroke-width="99.779999" stroke-opacity="1" stroke-miterlimit="10"/><path fill="#fde35a" d="M 207.179688 129.6875 C 207.179688 139.515625 197.898438 147.488281 186.445312 147.488281 C 174.988281 147.488281 165.707031 139.515625 165.707031 129.6875 C 165.707031 119.855469 174.988281 111.882812 186.445312 111.882812 C 197.898438 111.882812 207.179688 119.855469 207.179688 129.6875 " fill-opacity="1" fill-rule="nonzero"/><path stroke-linecap="round" transform="matrix(0.0205199, 0, 0, -0.0205176, -30.462674, 405.263421)" fill="none" stroke-linejoin="round" d="M 11581.051658 13431.202922 C 11581.051658 12952.193216 11128.747468 12563.616582 10570.601052 12563.616582 C 10012.264272 12563.616582 9559.960081 12952.193216 9559.960081 13431.202922 C 9559.960081 13910.403014 10012.264272 14298.979648 10570.601052 14298.979648 C 11128.747468 14298.979648 11581.051658 13910.403014 11581.051658 13431.202922 Z M 11581.051658 13431.202922 " stroke="#000000" stroke-width="99.779999" stroke-opacity="1" stroke-miterlimit="10"/><path fill="#fde35a" d="M 219.121094 93.871094 C 219.121094 111.917969 204.492188 126.542969 186.445312 126.542969 C 168.398438 126.542969 153.769531 111.917969 153.769531 95.832031 L 153.769531 63.574219 C 153.769531 43.574219 168.398438 28.945312 186.445312 28.945312 C 204.492188 28.945312 219.121094 43.574219 219.121094 61.621094 L 219.121094 93.871094 " fill-opacity="1" fill-rule="nonzero"/><path stroke-linecap="round" transform="matrix(0.023089, 0, 0, -0.0230864, -30.462674, 405.263421)" fill="none" stroke-linejoin="round" d="M 10809.289042 13487.626502 C 10809.289042 12706.085145 10175.70206 12072.595031 9394.080737 12072.595031 C 8612.628595 12072.595031 7979.041613 12706.085145 7979.041613 13402.856591 L 7979.041613 14799.952711 C 7979.041613 15666.433181 8612.628595 16299.923295 9394.080737 16299.923295 C 10175.70206 16299.923295 10809.289042 15666.433181 10809.289042 14884.722623 Z M 10809.289042 13487.626502 " stroke="#000000" stroke-width="88.675003" stroke-opacity="1" stroke-miterlimit="10"/><path fill="#000000" d="M 221.839844 48.632812 C 221.839844 68.179688 198.707031 61.039062 214.414062 71.933594 C 173.402344 83.507812 151.046875 68.179688 151.046875 48.632812 C 151.046875 29.082031 166.894531 13.238281 186.445312 13.238281 C 205.996094 13.238281 221.839844 29.082031 221.839844 48.632812 " fill-opacity="1" fill-rule="nonzero"/><path fill="#fde35a" d="M 224.566406 53.765625 C 224.566406 63.800781 207.5 71.933594 186.445312 71.933594 C 165.390625 71.933594 148.324219 63.800781 148.324219 53.765625 C 148.324219 43.734375 165.390625 35.601562 186.445312 35.601562 C 207.5 35.601562 224.566406 43.734375 224.566406 53.765625 " fill-opacity="1" fill-rule="nonzero"/><path stroke-linecap="round" transform="matrix(0.0226807, 0, 0, -0.0226781, -30.462674, 405.263421)" fill="none" stroke-linejoin="round" d="M 11244.159488 15499.098794 C 11244.159488 15056.594355 10491.522744 14697.802317 9563.385579 14697.802317 C 8635.076186 14697.802317 7882.61167 15056.594355 7882.61167 15499.098794 C 7882.61167 15941.430985 8635.076186 16300.050776 9563.385579 16300.050776 C 10491.522744 16300.050776 11244.159488 15941.430985 11244.159488 15499.098794 Z M 11244.159488 15499.098794 " stroke="#000000" stroke-width="90.272003" stroke-opacity="1" stroke-miterlimit="10"/><path fill="#fde35a" d="M 228.351562 52.628906 L 228.351562 46.519531 C 228.351562 21.394531 209.589844 1.023438 186.441406 1.023438 C 163.300781 1.023438 144.539062 21.394531 144.539062 46.519531 L 144.539062 52.628906 L 228.351562 52.628906 " fill-opacity="1" fill-rule="nonzero"/><path stroke-linecap="round" transform="matrix(0.0248024, 0, 0, -0.0247996, -30.462674, 405.263421)" fill="none" stroke-linejoin="round" d="M 10434.716025 14219.042277 L 10434.716025 14465.391917 C 10434.716025 15478.670202 9678.427043 16299.940679 8745.114151 16299.940679 C 7812.116248 16299.940679 7055.827266 15478.670202 7055.827266 14465.391917 L 7055.827266 14219.042277 Z M 10434.716025 14219.042277 " stroke="#000000" stroke-width="82.550003" stroke-opacity="1" stroke-miterlimit="10"/><path fill="#fde35a" d="M 255.265625 276.113281 C 255.265625 280.382812 251.878906 283.835938 247.691406 283.835938 L 125.195312 283.835938 C 121.011719 283.835938 117.621094 280.382812 117.621094 276.113281 L 117.621094 212.804688 C 117.621094 208.539062 121.011719 205.085938 125.195312 205.085938 L 247.691406 205.085938 C 251.878906 205.085938 255.265625 208.539062 255.265625 212.804688 L 255.265625 276.113281 " fill-opacity="1" fill-rule="nonzero"/><path stroke-linecap="round" transform="matrix(0.0205199, 0, 0, -0.0205176, -30.462674, 405.263421)" fill="none" stroke-linejoin="round" d="M 13924.429007 6294.605606 C 13924.429007 6086.514346 13759.383665 5918.213639 13555.313761 5918.213639 L 7585.697979 5918.213639 C 7381.818439 5918.213639 7216.582733 6086.514346 7216.582733 6294.605606 L 7216.582733 9380.182042 C 7216.582733 9588.082916 7381.818439 9756.383624 7585.697979 9756.383624 L 13555.313761 9756.383624 C 13759.383665 9756.383624 13924.429007 9588.082916 13924.429007 9380.182042 Z M 13924.429007 6294.605606 " stroke="#000000" stroke-width="99.779999" stroke-opacity="1" stroke-miterlimit="10"/><path fill="#fde35a" d="M 199.484375 241.777344 C 199.484375 249.125 193.644531 255.082031 186.441406 255.082031 C 179.238281 255.082031 173.402344 249.125 173.402344 241.777344 C 173.402344 234.429688 179.238281 228.476562 186.441406 228.476562 C 193.644531 228.476562 199.484375 234.429688 199.484375 241.777344 " fill-opacity="1" fill-rule="nonzero"/><path stroke-linecap="round" transform="matrix(0.0205199, 0, 0, -0.0205176, -30.462674, 405.263421)" fill="none" stroke-linejoin="round" d="M 11206.035137 7968.093412 C 11206.035137 7609.978445 10921.441381 7319.640685 10570.410688 7319.640685 C 10219.379995 7319.640685 9934.976603 7609.978445 9934.976603 7968.093412 C 9934.976603 8326.20838 10219.379995 8616.355753 10570.410688 8616.355753 C 10921.441381 8616.355753 11206.035137 8326.20838 11206.035137 7968.093412 Z M 11206.035137 7968.093412 " stroke="#000000" stroke-width="99.779999" stroke-opacity="1" stroke-miterlimit="10"/><path fill="#fde35a" d="M 246.351562 341.308594 L 270.675781 373.980469 L 310.867188 373.980469 L 289.039062 341.308594 L 246.351562 341.308594 " fill-opacity="1" fill-rule="nonzero"/><path stroke-linecap="round" transform="matrix(0.0209406, 0, 0, -0.0209382, -30.462674, 405.263421)" fill="none" stroke-linejoin="round" d="M 13219.028167 3054.456803 L 14380.610524 1494.061215 L 16299.91691 1494.061215 L 15257.533386 3054.456803 Z M 13219.028167 3054.456803 " stroke="#000000" stroke-width="97.775002" stroke-opacity="1" stroke-miterlimit="10"/><path fill="#fde35a" d="M 132.539062 341.308594 L 108.210938 373.980469 L 68.019531 373.980469 L 89.84375 341.308594 L 132.539062 341.308594 " fill-opacity="1" fill-rule="nonzero"/><path stroke-linecap="round" transform="matrix(0.0205199, 0, 0, -0.0205176, -30.462674, 405.263421)" fill="none" stroke-linejoin="round" d="M 7943.581766 3117.073014 L 6757.99654 1524.689395 L 4799.344262 1524.689395 L 5862.906346 3117.073014 Z M 7943.581766 3117.073014 " stroke="#000000" stroke-width="99.779999" stroke-opacity="1" stroke-miterlimit="10"/><path fill="#fde35a" d="M 90.460938 319.710938 C 72.304688 314.851562 63.78125 301.511719 70.070312 283.757812 C 77.5 262.78125 93.007812 265.125 106.246094 267.722656 L 263.398438 339.761719 L 257.921875 355.21875 L 90.460938 319.710938 " fill-opacity="1" fill-rule="nonzero"/><path stroke-linecap="round" transform="matrix(0.0205199, 0, 0, -0.0205176, -30.462674, 405.263421)" fill="none" stroke-linejoin="round" d="M 5892.983813 4169.713979 C 5008.173259 4406.553436 4592.79963 5056.719632 4899.285213 5922.021347 C 5261.357002 6944.391031 6017.100956 6830.159781 6662.243591 6703.553479 L 14320.766264 3192.465639 L 14053.876334 2439.110548 Z M 5892.983813 4169.713979 " stroke="#000000" stroke-width="99.779999" stroke-opacity="1" stroke-miterlimit="10"/><path fill="#fde35a" d="M 282.792969 319.710938 C 300.949219 314.851562 309.472656 301.511719 303.183594 283.757812 C 295.75 262.78125 280.246094 265.125 267.011719 267.722656 L 109.855469 339.761719 L 115.328125 355.21875 L 282.792969 319.710938 " fill-opacity="1" fill-rule="nonzero"/><path stroke-linecap="round" transform="matrix(0.0208544, 0, 0, -0.020852, -30.462674, 405.263421)" fill="none" stroke-linejoin="round" d="M 15020.88972 4102.650224 C 15891.321779 4335.878437 16300.033367 4975.61687 15998.650715 5827.040347 C 15642.011456 6832.825309 14898.57594 6720.42617 14263.967845 6595.850457 L 6728.277689 3141.075591 L 6990.88706 2399.990601 Z M 15020.88972 4102.650224 " stroke="#000000" stroke-width="98.178001" stroke-opacity="1" stroke-miterlimit="10"/><path fill="#231f20" d="M 169.59375 110.011719 C 169.59375 110.011719 170.121094 110.289062 171.066406 110.699219 C 171.539062 110.90625 172.121094 111.136719 172.789062 111.390625 C 173.457031 111.640625 174.222656 111.894531 175.058594 112.148438 C 175.890625 112.414062 176.808594 112.644531 177.777344 112.878906 C 178.753906 113.09375 179.78125 113.300781 180.855469 113.460938 C 181.390625 113.542969 181.9375 113.601562 182.488281 113.675781 C 182.765625 113.699219 183.046875 113.726562 183.324219 113.75 C 183.605469 113.78125 183.886719 113.804688 184.171875 113.820312 C 184.453125 113.835938 184.738281 113.855469 185.023438 113.871094 C 185.308594 113.878906 185.597656 113.886719 185.882812 113.894531 C 186.457031 113.921875 187.035156 113.910156 187.609375 113.902344 C 188.1875 113.910156 188.761719 113.859375 189.335938 113.839844 C 189.910156 113.804688 190.480469 113.75 191.046875 113.707031 C 191.613281 113.640625 192.171875 113.574219 192.726562 113.511719 C 193.277344 113.421875 193.824219 113.335938 194.359375 113.253906 C 194.894531 113.152344 195.421875 113.050781 195.933594 112.949219 C 196.449219 112.851562 196.945312 112.714844 197.433594 112.609375 C 197.925781 112.507812 198.390625 112.367188 198.847656 112.246094 C 199.304688 112.121094 199.75 112.019531 200.167969 111.882812 C 201.003906 111.621094 201.785156 111.410156 202.460938 111.164062 C 203.136719 110.925781 203.742188 110.75 204.222656 110.558594 C 204.707031 110.375 205.097656 110.246094 205.359375 110.148438 C 205.621094 110.058594 205.765625 110.011719 205.765625 110.011719 C 205.765625 110.011719 205.640625 110.09375 205.40625 110.246094 C 205.171875 110.390625 204.828125 110.617188 204.382812 110.890625 C 203.941406 111.171875 203.386719 111.472656 202.742188 111.8125 C 202.105469 112.167969 201.359375 112.511719 200.539062 112.882812 C 200.132812 113.082031 199.691406 113.234375 199.242188 113.417969 C 198.789062 113.597656 198.320312 113.785156 197.828125 113.941406 C 197.335938 114.101562 196.832031 114.277344 196.308594 114.425781 C 195.785156 114.570312 195.246094 114.714844 194.699219 114.855469 C 194.140625 114.972656 193.578125 115.089844 193.007812 115.210938 C 192.429688 115.304688 191.84375 115.402344 191.253906 115.484375 C 190.660156 115.542969 190.0625 115.625 189.460938 115.664062 C 188.855469 115.6875 188.25 115.746094 187.640625 115.742188 C 187.035156 115.746094 186.425781 115.753906 185.820312 115.71875 C 185.519531 115.707031 185.21875 115.699219 184.917969 115.675781 C 184.617188 115.652344 184.320312 115.625 184.019531 115.597656 C 182.832031 115.488281 181.667969 115.300781 180.554688 115.0625 C 179.441406 114.828125 178.386719 114.527344 177.398438 114.207031 C 176.414062 113.871094 175.496094 113.523438 174.675781 113.144531 C 173.851562 112.773438 173.121094 112.386719 172.484375 112.023438 C 171.847656 111.667969 171.316406 111.3125 170.886719 111.019531 C 170.453125 110.726562 170.136719 110.460938 169.917969 110.289062 C 169.699219 110.113281 169.59375 110.011719 169.59375 110.011719 " fill-opacity="1" fill-rule="nonzero"/><g clip-path="url(#b2c1c73f63)"><path fill="#231f20" d="M 176.828125 115.492188 C 176.828125 115.492188 176.902344 115.546875 177.046875 115.65625 C 177.191406 115.765625 177.410156 115.917969 177.679688 116.105469 C 177.949219 116.300781 178.292969 116.507812 178.675781 116.757812 C 179.070312 116.992188 179.515625 117.246094 180.007812 117.5 C 180.5 117.753906 181.035156 118.015625 181.617188 118.246094 C 181.90625 118.367188 182.207031 118.472656 182.515625 118.585938 C 182.828125 118.675781 183.136719 118.796875 183.464844 118.871094 C 184.109375 119.0625 184.789062 119.179688 185.480469 119.28125 C 185.828125 119.316406 186.175781 119.359375 186.527344 119.371094 C 186.703125 119.375 186.878906 119.390625 187.054688 119.390625 L 187.585938 119.382812 L 187.847656 119.378906 L 188.113281 119.359375 L 188.640625 119.320312 C 188.992188 119.273438 189.34375 119.230469 189.6875 119.175781 C 189.859375 119.140625 190.03125 119.105469 190.203125 119.070312 C 190.371094 119.035156 190.546875 119.011719 190.710938 118.960938 C 191.046875 118.867188 191.378906 118.792969 191.703125 118.691406 C 192.027344 118.585938 192.34375 118.480469 192.65625 118.378906 C 192.960938 118.257812 193.265625 118.144531 193.558594 118.03125 C 193.851562 117.914062 194.125 117.777344 194.402344 117.660156 C 194.539062 117.597656 194.675781 117.542969 194.804688 117.480469 C 194.9375 117.414062 195.0625 117.351562 195.1875 117.289062 C 195.441406 117.164062 195.679688 117.046875 195.910156 116.933594 C 196.136719 116.8125 196.351562 116.695312 196.554688 116.585938 C 196.957031 116.367188 197.320312 116.179688 197.601562 116.003906 C 197.886719 115.835938 198.125 115.710938 198.28125 115.621094 C 198.445312 115.535156 198.53125 115.492188 198.53125 115.492188 C 198.53125 115.492188 198.46875 115.5625 198.351562 115.703125 C 198.234375 115.835938 198.066406 116.042969 197.835938 116.292969 C 197.71875 116.414062 197.597656 116.558594 197.453125 116.703125 C 197.308594 116.847656 197.144531 116.996094 196.972656 117.15625 C 196.796875 117.316406 196.613281 117.488281 196.417969 117.667969 C 196.210938 117.835938 195.988281 118.011719 195.761719 118.191406 C 195.53125 118.378906 195.285156 118.558594 195.019531 118.730469 C 194.753906 118.90625 194.480469 119.09375 194.191406 119.269531 C 193.890625 119.433594 193.582031 119.601562 193.269531 119.773438 C 192.949219 119.9375 192.605469 120.074219 192.265625 120.230469 C 191.921875 120.378906 191.550781 120.488281 191.183594 120.621094 C 190.816406 120.746094 190.429688 120.828125 190.042969 120.929688 C 189.652344 121.007812 189.253906 121.082031 188.851562 121.136719 L 187.9375 121.21875 L 187.632812 121.222656 L 187.019531 121.226562 C 186.816406 121.222656 186.613281 121.203125 186.410156 121.191406 C 186 121.179688 185.601562 121.097656 185.203125 121.046875 C 184.414062 120.894531 183.648438 120.699219 182.945312 120.417969 C 182.585938 120.292969 182.25 120.132812 181.921875 119.984375 C 181.601562 119.8125 181.28125 119.664062 180.988281 119.480469 C 180.394531 119.136719 179.875 118.753906 179.410156 118.386719 C 178.949219 118.015625 178.5625 117.636719 178.230469 117.300781 C 177.898438 116.957031 177.632812 116.640625 177.425781 116.371094 C 177.007812 115.835938 176.828125 115.492188 176.828125 115.492188 " fill-opacity="1" fill-rule="nonzero"/></g><g clip-path="url(#f8f50040ac)"><path fill="#231f20" d="M 168.144531 110.789062 C 168.144531 110.789062 168.367188 110.710938 168.617188 110.5625 C 168.679688 110.519531 168.746094 110.480469 168.808594 110.429688 C 168.875 110.382812 168.9375 110.332031 169 110.273438 C 169.0625 110.21875 169.121094 110.15625 169.183594 110.09375 C 169.238281 110.023438 169.308594 109.96875 169.355469 109.886719 C 169.410156 109.816406 169.46875 109.746094 169.515625 109.664062 C 169.566406 109.589844 169.621094 109.515625 169.664062 109.433594 C 169.707031 109.355469 169.761719 109.285156 169.800781 109.207031 C 169.839844 109.132812 169.882812 109.0625 169.925781 108.996094 C 170.003906 108.859375 170.066406 108.742188 170.121094 108.660156 C 170.175781 108.578125 170.210938 108.53125 170.210938 108.53125 C 170.210938 108.53125 170.226562 108.585938 170.242188 108.683594 C 170.253906 108.78125 170.28125 108.921875 170.265625 109.089844 C 170.261719 109.171875 170.253906 109.265625 170.238281 109.359375 C 170.226562 109.457031 170.195312 109.554688 170.164062 109.660156 C 170.136719 109.761719 170.089844 109.863281 170.035156 109.964844 C 169.988281 110.070312 169.914062 110.167969 169.84375 110.261719 C 169.777344 110.359375 169.683594 110.441406 169.597656 110.523438 C 169.503906 110.601562 169.410156 110.671875 169.308594 110.722656 C 169.207031 110.777344 169.105469 110.820312 169.003906 110.847656 C 168.90625 110.878906 168.804688 110.886719 168.714844 110.898438 C 168.539062 110.910156 168.390625 110.882812 168.292969 110.851562 C 168.195312 110.820312 168.144531 110.789062 168.144531 110.789062 " fill-opacity="1" fill-rule="nonzero"/></g><g clip-path="url(#9f50bd3bb3)"><path fill="#231f20" d="M 207.144531 110.789062 C 207.144531 110.789062 207.09375 110.820312 206.996094 110.851562 C 206.902344 110.882812 206.753906 110.910156 206.574219 110.898438 C 206.484375 110.886719 206.386719 110.878906 206.285156 110.847656 C 206.183594 110.820312 206.082031 110.777344 205.980469 110.722656 C 205.878906 110.671875 205.785156 110.601562 205.691406 110.523438 C 205.605469 110.441406 205.511719 110.359375 205.445312 110.261719 C 205.375 110.167969 205.300781 110.070312 205.253906 109.964844 C 205.203125 109.863281 205.152344 109.761719 205.125 109.660156 C 205.097656 109.554688 205.0625 109.457031 205.050781 109.359375 C 205.035156 109.265625 205.027344 109.171875 205.023438 109.089844 C 205.007812 108.921875 205.035156 108.78125 205.046875 108.683594 C 205.0625 108.585938 205.078125 108.53125 205.078125 108.53125 C 205.078125 108.53125 205.113281 108.578125 205.167969 108.660156 C 205.226562 108.742188 205.285156 108.859375 205.367188 108.996094 C 205.40625 109.0625 205.449219 109.132812 205.492188 109.207031 C 205.53125 109.285156 205.585938 109.355469 205.628906 109.433594 C 205.671875 109.515625 205.726562 109.589844 205.777344 109.664062 C 205.824219 109.746094 205.878906 109.816406 205.9375 109.886719 C 205.984375 109.96875 206.054688 110.023438 206.105469 110.09375 C 206.167969 110.15625 206.226562 110.21875 206.289062 110.273438 C 206.355469 110.332031 206.417969 110.382812 206.480469 110.429688 C 206.546875 110.480469 206.609375 110.519531 206.671875 110.5625 C 206.921875 110.710938 207.144531 110.789062 207.144531 110.789062 " fill-opacity="1" fill-rule="nonzero"/></g><path fill="#231f20" d="M 174.65625 110.386719 C 175.214844 110.558594 175.789062 110.675781 176.363281 110.765625 C 176.9375 110.855469 177.515625 110.910156 178.097656 110.933594 C 179.253906 110.980469 180.417969 110.898438 181.539062 110.660156 C 181.820312 110.601562 182.097656 110.535156 182.371094 110.457031 C 182.648438 110.378906 182.921875 110.289062 183.1875 110.191406 C 183.453125 110.09375 183.714844 109.984375 183.972656 109.867188 C 184.222656 109.757812 184.5 109.597656 184.859375 109.523438 C 185.199219 109.453125 185.566406 109.472656 185.898438 109.574219 C 186.234375 109.671875 186.53125 109.839844 186.792969 110.035156 C 187.054688 110.234375 187.285156 110.457031 187.492188 110.699219 C 187.699219 110.945312 187.878906 111.183594 188.050781 111.480469 L 188.050781 111.484375 L 187.238281 111.457031 C 187.421875 111.179688 187.605469 110.953125 187.816406 110.714844 C 188.023438 110.488281 188.246094 110.269531 188.496094 110.070312 C 188.746094 109.871094 189.019531 109.695312 189.332031 109.5625 C 189.644531 109.433594 190 109.359375 190.359375 109.394531 C 190.539062 109.417969 190.714844 109.453125 190.875 109.523438 L 191.277344 109.691406 C 191.527344 109.78125 191.796875 109.871094 192.074219 109.933594 C 192.621094 110.074219 193.1875 110.164062 193.757812 110.226562 C 194.902344 110.347656 196.0625 110.359375 197.222656 110.316406 C 198.382812 110.269531 199.546875 110.171875 200.699219 110.011719 C 199.558594 110.246094 198.402344 110.421875 197.238281 110.542969 C 196.078125 110.660156 194.902344 110.726562 193.722656 110.679688 C 193.132812 110.652344 192.539062 110.597656 191.949219 110.488281 C 191.652344 110.4375 191.363281 110.363281 191.058594 110.273438 L 190.644531 110.132812 C 190.535156 110.09375 190.421875 110.082031 190.308594 110.074219 C 190.085938 110.070312 189.859375 110.128906 189.640625 110.238281 C 189.421875 110.347656 189.214844 110.5 189.019531 110.679688 C 188.828125 110.855469 188.648438 111.054688 188.484375 111.269531 C 188.320312 111.476562 188.15625 111.714844 188.035156 111.929688 C 187.914062 112.144531 187.636719 112.222656 187.417969 112.101562 C 187.351562 112.066406 187.300781 112.015625 187.261719 111.957031 L 187.222656 111.898438 C 187.117188 111.683594 186.96875 111.441406 186.8125 111.234375 C 186.65625 111.019531 186.480469 110.824219 186.289062 110.660156 C 185.90625 110.324219 185.445312 110.128906 184.976562 110.191406 C 184.753906 110.214844 184.503906 110.324219 184.214844 110.4375 C 183.9375 110.542969 183.652344 110.640625 183.367188 110.722656 C 183.078125 110.808594 182.789062 110.882812 182.496094 110.945312 C 182.207031 111.011719 181.914062 111.0625 181.617188 111.105469 C 181.03125 111.1875 180.4375 111.234375 179.847656 111.242188 C 179.253906 111.25 178.664062 111.21875 178.078125 111.160156 C 177.496094 111.09375 176.914062 111.003906 176.339844 110.875 C 175.769531 110.746094 175.203125 110.59375 174.65625 110.386719 " fill-opacity="1" fill-rule="nonzero"/><g clip-path="url(#f250cb7dad)"><path fill="#363639" d="M 186.234375 108.234375 L 186.371094 108.246094 L 186.636719 108.253906 L 186.78125 108.25 L 186.917969 108.246094 L 187.058594 108.238281 L 187.203125 108.21875 L 187.351562 108.199219 L 187.492188 108.171875 L 187.640625 108.140625 L 187.789062 108.105469 L 187.929688 108.066406 L 188.078125 108.015625 L 188.222656 107.964844 L 188.363281 107.90625 L 188.507812 107.84375 L 188.644531 107.773438 L 188.78125 107.699219 L 188.917969 107.621094 L 189.050781 107.53125 L 189.179688 107.441406 L 189.304688 107.34375 L 189.429688 107.238281 L 189.550781 107.125 L 189.667969 107.007812 L 189.886719 106.75 L 189.984375 106.609375 L 190.082031 106.464844 L 190.171875 106.316406 L 190.257812 106.15625 L 190.335938 105.988281 L 190.476562 105.660156 L 190.542969 105.488281 L 190.609375 105.308594 L 190.683594 105.132812 L 190.746094 104.957031 L 190.816406 104.777344 L 190.890625 104.59375 L 190.960938 104.414062 L 191.109375 104.054688 L 191.1875 103.871094 L 191.265625 103.699219 L 191.34375 103.519531 L 191.429688 103.347656 L 191.515625 103.183594 L 191.605469 103.015625 L 191.699219 102.851562 L 191.792969 102.695312 L 191.890625 102.542969 L 191.992188 102.398438 L 192.101562 102.257812 L 192.207031 102.125 L 192.324219 101.996094 L 192.441406 101.878906 L 192.566406 101.761719 L 192.695312 101.660156 L 192.828125 101.566406 L 192.96875 101.484375 L 193.109375 101.410156 L 193.257812 101.34375 L 193.410156 101.292969 L 193.566406 101.25 L 193.726562 101.21875 L 193.882812 101.1875 L 194.050781 101.167969 L 194.214844 101.144531 L 194.558594 101.105469 L 194.734375 101.09375 L 194.914062 101.074219 L 195.085938 101.054688 L 195.265625 101.042969 L 195.441406 101.027344 L 195.621094 101.003906 L 195.796875 100.984375 L 195.976562 100.960938 L 196.320312 100.898438 L 196.65625 100.820312 L 196.824219 100.773438 L 196.980469 100.710938 L 197.140625 100.652344 L 197.292969 100.578125 L 197.4375 100.5 L 197.578125 100.410156 L 197.714844 100.3125 L 197.847656 100.203125 L 197.96875 100.082031 L 198.085938 99.949219 L 198.195312 99.808594 L 198.296875 99.652344 L 198.390625 99.480469 L 198.523438 99.183594 L 198.617188 98.875 L 198.679688 98.566406 L 198.710938 98.253906 L 198.710938 97.941406 L 198.6875 97.628906 L 198.640625 97.320312 L 198.570312 97.015625 L 198.492188 96.71875 L 198.394531 96.429688 L 198.28125 96.148438 L 198.167969 95.875 L 198.042969 95.621094 L 197.910156 95.371094 L 197.78125 95.140625 L 197.65625 94.929688 L 197.585938 94.804688 L 197.507812 94.683594 L 197.414062 94.554688 L 197.324219 94.4375 L 197.230469 94.316406 L 197.128906 94.207031 L 197.023438 94.105469 L 196.917969 94.019531 L 196.808594 93.941406 L 196.703125 93.878906 L 196.601562 93.828125 L 196.496094 93.800781 L 196.394531 93.792969 L 196.300781 93.808594 L 196.207031 93.851562 L 196.121094 93.917969 L 196.015625 94.011719 L 195.921875 94.113281 L 195.832031 94.222656 L 195.757812 94.328125 L 195.695312 94.441406 L 195.644531 94.5625 L 195.605469 94.6875 L 195.582031 94.820312 L 195.570312 94.960938 L 195.578125 95.109375 L 195.59375 95.261719 L 195.632812 95.417969 L 195.695312 95.589844 L 195.769531 95.769531 L 195.863281 95.964844 L 195.976562 96.160156 L 196.03125 96.257812 L 196.097656 96.355469 L 196.160156 96.453125 L 196.304688 96.65625 L 196.382812 96.757812 L 196.523438 96.960938 L 196.59375 97.070312 L 196.65625 97.171875 L 196.757812 97.390625 L 196.796875 97.496094 L 196.828125 97.605469 L 196.851562 97.714844 L 196.855469 97.824219 L 196.847656 97.941406 L 196.828125 98.046875 L 196.796875 98.148438 L 196.757812 98.242188 L 196.703125 98.328125 L 196.640625 98.40625 L 196.570312 98.476562 L 196.496094 98.539062 L 196.414062 98.585938 L 196.328125 98.632812 L 196.238281 98.671875 L 196.144531 98.703125 L 196.046875 98.730469 L 195.949219 98.75 L 195.851562 98.757812 L 195.757812 98.761719 L 195.574219 98.761719 L 195.390625 98.765625 L 195.210938 98.769531 L 195.039062 98.78125 L 194.863281 98.789062 L 194.695312 98.804688 L 194.527344 98.828125 L 194.363281 98.84375 L 194.203125 98.871094 L 194.042969 98.902344 L 193.882812 98.9375 L 193.730469 98.972656 L 193.574219 99.015625 L 193.425781 99.0625 L 193.273438 99.117188 L 193.125 99.175781 L 192.984375 99.242188 L 192.839844 99.3125 L 192.699219 99.386719 L 192.558594 99.464844 L 192.421875 99.554688 L 192.285156 99.652344 L 192.148438 99.753906 L 192.015625 99.859375 L 191.886719 99.980469 L 191.753906 100.097656 L 191.621094 100.226562 L 191.496094 100.367188 L 191.367188 100.515625 L 191.242188 100.671875 L 191.117188 100.832031 L 190.992188 101.003906 L 190.886719 101.164062 L 190.785156 101.320312 L 190.683594 101.488281 L 190.585938 101.65625 L 190.5 101.828125 L 190.40625 102 L 190.320312 102.171875 L 190.234375 102.347656 L 190.15625 102.523438 L 190.074219 102.703125 L 189.996094 102.882812 L 189.832031 103.234375 L 189.675781 103.578125 L 189.597656 103.753906 L 189.511719 103.917969 L 189.429688 104.085938 L 189.34375 104.242188 L 189.261719 104.402344 L 189.171875 104.554688 L 189.078125 104.707031 L 188.984375 104.851562 L 188.878906 104.988281 L 188.777344 105.121094 L 188.671875 105.25 L 188.5625 105.367188 L 188.445312 105.480469 L 188.320312 105.582031 L 188.191406 105.683594 L 188.058594 105.769531 L 187.917969 105.847656 L 187.796875 105.90625 L 187.675781 105.949219 L 187.554688 105.988281 L 187.421875 106.015625 L 187.292969 106.03125 L 187.160156 106.046875 L 187.023438 106.046875 L 186.886719 106.039062 L 186.75 106.023438 L 186.609375 106.003906 L 186.46875 105.972656 L 186.328125 105.933594 L 186.183594 105.882812 L 186.046875 105.832031 L 185.90625 105.769531 L 185.765625 105.703125 L 185.628906 105.628906 L 185.496094 105.550781 L 185.355469 105.460938 L 185.222656 105.363281 L 185.09375 105.265625 L 184.960938 105.160156 L 184.835938 105.050781 L 184.71875 104.929688 L 184.597656 104.808594 L 184.480469 104.679688 L 184.371094 104.546875 L 184.265625 104.414062 L 184.164062 104.269531 L 184.070312 104.125 L 183.976562 103.972656 L 183.890625 103.820312 L 183.769531 103.597656 L 183.652344 103.359375 L 183.542969 103.101562 L 183.429688 102.835938 L 183.328125 102.5625 L 183.226562 102.28125 L 183.125 101.996094 L 183.03125 101.707031 L 182.9375 101.414062 L 182.84375 101.125 L 182.746094 100.832031 L 182.652344 100.546875 L 182.558594 100.269531 L 182.46875 99.996094 L 182.28125 99.480469 L 182.179688 99.269531 L 182.078125 99.054688 L 181.96875 98.851562 L 181.855469 98.648438 L 181.738281 98.453125 L 181.609375 98.261719 L 181.480469 98.085938 L 181.347656 97.925781 L 181.203125 97.769531 L 181.0625 97.632812 L 180.910156 97.511719 L 180.757812 97.398438 L 180.597656 97.3125 L 180.429688 97.246094 L 180.257812 97.195312 L 180.082031 97.171875 L 179.933594 97.171875 L 179.800781 97.1875 L 179.671875 97.222656 L 179.554688 97.28125 L 179.429688 97.347656 L 179.320312 97.421875 L 179.214844 97.503906 L 178.996094 97.691406 L 178.890625 97.785156 L 178.785156 97.871094 L 178.671875 97.957031 L 178.5625 98.027344 L 178.441406 98.097656 L 178.316406 98.148438 L 178.183594 98.183594 L 178.164062 98.175781 L 178.121094 98.15625 L 178.066406 98.125 L 178 98.082031 L 177.933594 98.027344 L 177.875 97.964844 L 177.835938 97.902344 L 177.816406 97.824219 L 177.847656 97.527344 L 177.90625 97.242188 L 177.996094 96.960938 L 178.113281 96.695312 L 178.246094 96.429688 L 178.394531 96.175781 L 178.5625 95.921875 L 178.742188 95.679688 L 178.921875 95.441406 L 179.113281 95.207031 L 179.304688 94.984375 L 179.492188 94.757812 L 179.671875 94.542969 L 179.847656 94.332031 L 180.007812 94.125 L 180.15625 93.917969 L 180.199219 93.796875 L 180.226562 93.667969 L 180.238281 93.527344 L 180.238281 93.375 L 180.226562 93.226562 L 180.210938 93.085938 L 180.183594 92.953125 L 180.15625 92.832031 L 180.136719 92.78125 L 180.089844 92.726562 L 180.027344 92.679688 L 179.945312 92.632812 L 179.851562 92.59375 L 179.753906 92.570312 L 179.660156 92.546875 L 179.570312 92.542969 L 179.398438 92.589844 L 179.234375 92.648438 L 179.078125 92.714844 L 178.921875 92.792969 L 178.777344 92.882812 L 178.628906 92.976562 L 178.488281 93.085938 L 178.355469 93.199219 L 178.226562 93.320312 L 178.097656 93.453125 L 177.976562 93.597656 L 177.859375 93.738281 L 177.742188 93.894531 L 177.636719 94.050781 L 177.53125 94.214844 L 177.425781 94.390625 L 177.332031 94.5625 L 177.238281 94.742188 L 177.144531 94.925781 L 177.0625 95.117188 L 176.976562 95.304688 L 176.898438 95.5 L 176.820312 95.699219 L 176.75 95.894531 L 176.617188 96.300781 L 176.550781 96.507812 L 176.488281 96.710938 L 176.433594 96.917969 L 176.378906 97.121094 L 176.324219 97.328125 L 176.277344 97.53125 L 176.246094 97.707031 L 176.222656 97.894531 L 176.21875 98.078125 L 176.226562 98.261719 L 176.25 98.445312 L 176.28125 98.628906 L 176.324219 98.8125 L 176.378906 98.984375 L 176.441406 99.15625 L 176.511719 99.316406 L 176.59375 99.472656 L 176.679688 99.617188 L 176.773438 99.746094 L 176.867188 99.867188 L 176.976562 99.972656 L 177.082031 100.058594 L 177.167969 100.121094 L 177.253906 100.167969 L 177.34375 100.203125 L 177.433594 100.222656 L 177.527344 100.234375 L 177.625 100.234375 L 177.71875 100.222656 L 177.820312 100.207031 L 177.917969 100.179688 L 178.019531 100.148438 L 178.121094 100.113281 L 178.332031 100.027344 L 178.433594 99.972656 L 178.535156 99.925781 L 178.636719 99.871094 L 178.742188 99.816406 L 178.945312 99.714844 L 179.042969 99.667969 L 179.144531 99.625 L 179.238281 99.585938 L 179.332031 99.550781 L 179.429688 99.523438 L 179.523438 99.503906 L 179.609375 99.488281 L 179.695312 99.480469 L 179.78125 99.488281 L 179.863281 99.503906 L 179.941406 99.535156 L 180.011719 99.574219 L 180.082031 99.628906 L 180.304688 99.828125 L 180.507812 100.042969 L 180.695312 100.277344 L 180.871094 100.523438 L 181.039062 100.78125 L 181.195312 101.054688 L 181.34375 101.339844 L 181.480469 101.628906 L 181.609375 101.929688 L 181.738281 102.234375 L 181.855469 102.546875 L 181.972656 102.867188 L 182.082031 103.183594 L 182.195312 103.5 L 182.304688 103.820312 L 182.527344 104.453125 L 182.644531 104.765625 L 182.769531 105.066406 L 182.886719 105.367188 L 183.015625 105.660156 L 183.15625 105.941406 L 183.296875 106.210938 L 183.449219 106.46875 L 183.613281 106.71875 L 183.789062 106.945312 L 183.976562 107.160156 L 184.179688 107.355469 L 184.390625 107.535156 L 184.621094 107.691406 L 184.875 107.824219 L 185.136719 107.941406 L 185.195312 107.957031 L 185.253906 107.976562 L 185.316406 107.996094 L 185.382812 108.015625 L 185.449219 108.042969 L 185.515625 108.066406 L 185.585938 108.089844 L 185.660156 108.113281 L 185.730469 108.140625 L 185.804688 108.164062 L 185.878906 108.179688 L 185.949219 108.199219 L 186.027344 108.210938 L 186.097656 108.222656 L 186.164062 108.230469 L 186.234375 108.234375 " fill-opacity="1" fill-rule="nonzero"/></g><g clip-path="url(#a0251b0f1b)"><path fill="#ffffff" d="M 197.472656 92.007812 C 201.363281 92.007812 204.519531 88.621094 204.519531 84.441406 C 204.519531 83.96875 204.476562 83.511719 204.402344 83.066406 C 203.070312 83.226562 200.511719 83.464844 197.617188 83.378906 C 197.78125 83.695312 197.878906 84.058594 197.878906 84.441406 C 197.878906 85.710938 196.84375 86.742188 195.570312 86.742188 C 194.292969 86.742188 193.261719 85.710938 193.261719 84.441406 C 193.261719 83.917969 193.4375 83.4375 193.730469 83.050781 C 192.699219 82.898438 191.671875 82.6875 190.6875 82.40625 C 190.519531 83.054688 190.429688 83.734375 190.429688 84.441406 C 190.429688 88.621094 193.582031 92.007812 197.472656 92.007812 " fill-opacity="1" fill-rule="nonzero"/></g><path fill="#211c1d" d="M 195.570312 86.742188 C 196.84375 86.742188 197.878906 85.710938 197.878906 84.441406 C 197.878906 84.058594 197.78125 83.695312 197.617188 83.378906 C 197.507812 83.375 197.402344 83.371094 197.292969 83.367188 C 197.292969 83.371094 197.296875 83.375 197.296875 83.378906 C 197.296875 83.742188 197 84.035156 196.632812 84.035156 C 196.269531 84.035156 195.972656 83.742188 195.972656 83.378906 C 195.972656 83.351562 195.980469 83.324219 195.984375 83.296875 C 195.238281 83.242188 194.484375 83.160156 193.730469 83.050781 C 193.4375 83.4375 193.261719 83.917969 193.261719 84.441406 C 193.261719 85.710938 194.292969 86.742188 195.570312 86.742188 " fill-opacity="1" fill-rule="nonzero"/><path fill="#ffffff" d="M 196.632812 84.035156 C 197 84.035156 197.296875 83.742188 197.296875 83.378906 C 197.296875 83.375 197.292969 83.371094 197.292969 83.367188 C 196.863281 83.351562 196.425781 83.328125 195.984375 83.296875 C 195.980469 83.324219 195.972656 83.351562 195.972656 83.378906 C 195.972656 83.742188 196.269531 84.035156 196.632812 84.035156 " fill-opacity="1" fill-rule="nonzero"/><g clip-path="url(#3e4e7706d6)"><path fill="#211c1d" d="M 197.472656 92.316406 C 198.117188 92.316406 198.742188 92.238281 199.34375 92.09375 C 199.425781 92.058594 200.039062 91.804688 200.230469 91.664062 C 200.230469 91.664062 200.855469 91.480469 201.625 91.144531 C 203.875 89.753906 205.375 87.273438 205.375 84.441406 C 205.375 83.933594 205.324219 83.4375 205.234375 82.957031 C 205.078125 82.980469 204.792969 83.019531 204.402344 83.066406 C 204.476562 83.511719 204.519531 83.96875 204.519531 84.441406 C 204.519531 88.621094 201.363281 92.007812 197.472656 92.007812 C 193.582031 92.007812 190.429688 88.621094 190.429688 84.441406 C 190.429688 83.734375 190.519531 83.054688 190.6875 82.40625 C 190.425781 82.328125 190.164062 82.25 189.90625 82.164062 C 189.691406 82.882812 189.570312 83.648438 189.570312 84.441406 C 189.570312 88.789062 193.109375 92.316406 197.472656 92.316406 " fill-opacity="1" fill-rule="nonzero"/></g><g clip-path="url(#f9ce4b7c58)"><path fill="#211c1d" d="M 199.34375 92.09375 C 199.335938 92.09375 199.332031 92.097656 199.332031 92.097656 C 202.742188 91.5 203.886719 89.652344 203.886719 89.652344 C 203.335938 90.292969 202.40625 90.796875 201.625 91.144531 C 200.855469 91.480469 200.230469 91.664062 200.230469 91.664062 C 200.039062 91.804688 199.425781 92.058594 199.34375 92.09375 " fill-opacity="1" fill-rule="nonzero"/></g><g clip-path="url(#cc0f5ff4d0)"><path fill="#211c1d" d="M 206.59375 82.855469 C 206.59375 82.855469 196.453125 84.667969 189.347656 82 C 189.347656 82 196.722656 84.542969 206.523438 82.726562 L 206.59375 82.855469 " fill-opacity="1" fill-rule="nonzero"/></g><g clip-path="url(#3504cf2043)"><path fill="#ffffff" d="M 176.050781 92.007812 C 179.941406 92.007812 183.097656 88.621094 183.097656 84.441406 C 183.097656 83.96875 183.054688 83.511719 182.980469 83.066406 C 181.644531 83.226562 179.089844 83.464844 176.195312 83.378906 C 176.359375 83.695312 176.457031 84.058594 176.457031 84.441406 C 176.457031 85.710938 175.421875 86.742188 174.144531 86.742188 C 172.871094 86.742188 171.835938 85.710938 171.835938 84.441406 C 171.835938 83.917969 172.015625 83.4375 172.308594 83.050781 C 171.277344 82.898438 170.25 82.6875 169.265625 82.40625 C 169.097656 83.054688 169.003906 83.734375 169.003906 84.441406 C 169.003906 88.621094 172.160156 92.007812 176.050781 92.007812 " fill-opacity="1" fill-rule="nonzero"/></g><path fill="#211c1d" d="M 174.144531 86.742188 C 175.421875 86.742188 176.457031 85.710938 176.457031 84.441406 C 176.457031 84.058594 176.359375 83.695312 176.195312 83.378906 C 176.085938 83.375 175.980469 83.371094 175.871094 83.367188 C 175.871094 83.371094 175.871094 83.375 175.871094 83.378906 C 175.871094 83.742188 175.578125 84.035156 175.210938 84.035156 C 174.847656 84.035156 174.550781 83.742188 174.550781 83.378906 C 174.550781 83.351562 174.554688 83.324219 174.558594 83.296875 C 173.816406 83.242188 173.0625 83.160156 172.308594 83.050781 C 172.015625 83.4375 171.835938 83.917969 171.835938 84.441406 C 171.835938 85.710938 172.871094 86.742188 174.144531 86.742188 " fill-opacity="1" fill-rule="nonzero"/><path fill="#ffffff" d="M 175.210938 84.035156 C 175.578125 84.035156 175.871094 83.742188 175.871094 83.378906 C 175.871094 83.375 175.871094 83.371094 175.871094 83.367188 C 175.4375 83.351562 175 83.328125 174.558594 83.296875 C 174.554688 83.324219 174.550781 83.351562 174.550781 83.378906 C 174.550781 83.742188 174.847656 84.035156 175.210938 84.035156 " fill-opacity="1" fill-rule="nonzero"/><g clip-path="url(#56549199b1)"><path fill="#211c1d" d="M 176.050781 92.316406 C 176.695312 92.316406 177.320312 92.238281 177.921875 92.09375 C 178.003906 92.058594 178.613281 91.804688 178.804688 91.664062 C 178.804688 91.664062 179.433594 91.480469 180.199219 91.144531 C 182.453125 89.753906 183.953125 87.273438 183.953125 84.441406 C 183.953125 83.933594 183.902344 83.4375 183.8125 82.957031 C 183.652344 82.980469 183.371094 83.019531 182.980469 83.066406 C 183.054688 83.511719 183.097656 83.96875 183.097656 84.441406 C 183.097656 88.621094 179.941406 92.007812 176.050781 92.007812 C 172.160156 92.007812 169.003906 88.621094 169.003906 84.441406 C 169.003906 83.734375 169.097656 83.054688 169.265625 82.40625 C 169 82.328125 168.742188 82.25 168.484375 82.164062 C 168.265625 82.882812 168.148438 83.648438 168.148438 84.441406 C 168.148438 88.789062 171.6875 92.316406 176.050781 92.316406 " fill-opacity="1" fill-rule="nonzero"/></g><g clip-path="url(#610540e6ad)"><path fill="#211c1d" d="M 177.921875 92.09375 C 177.914062 92.09375 177.910156 92.097656 177.910156 92.097656 C 181.316406 91.5 182.464844 89.652344 182.464844 89.652344 C 181.914062 90.292969 180.984375 90.796875 180.199219 91.144531 C 179.433594 91.480469 178.804688 91.664062 178.804688 91.664062 C 178.613281 91.804688 178.003906 92.058594 177.921875 92.09375 " fill-opacity="1" fill-rule="nonzero"/></g><path fill="#211c1d" d="M 184.386719 82.9375 C 184.386719 82.9375 174.53125 84.644531 167.9375 82 C 167.9375 82 173.648438 84.15625 184.386719 82.738281 L 184.386719 82.9375 " fill-opacity="1" fill-rule="nonzero"/><g clip-path="url(#cc838b5b1c)"><path fill="#211c1d" d="M 189.882812 78.378906 C 189.882812 78.378906 199.261719 74.632812 206.59375 80.328125 C 206.59375 80.328125 203.308594 72.6875 188.933594 76.152344 L 189.882812 78.378906 " fill-opacity="1" fill-rule="nonzero"/></g><g clip-path="url(#47a7d4ee96)"><path fill="#211c1d" d="M 183.679688 79.304688 C 183.679688 79.304688 174.8125 74.476562 166.855469 79.269531 C 166.855469 79.269531 171.023438 72.070312 184.890625 77.203125 L 183.679688 79.304688 " fill-opacity="1" fill-rule="nonzero"/></g></svg>