<svg xmlns="http://www.w3.org/2000/svg" xmlns:xlink="http://www.w3.org/1999/xlink" width="500" zoomAndPan="magnify" viewBox="0 0 375 374.999991" height="500" preserveAspectRatio="xMidYMid meet" version="1.0"><defs><clipPath id="id1"><path d="M 3 127.164062 L 372.367188 127.164062 L 372.367188 249.484375 L 3 249.484375 Z M 3 127.164062 " clip-rule="nonzero"/></clipPath><clipPath id="id2"><path d="M 272.367188 136.15625 L 353.675781 136.15625 L 353.675781 238 L 272.367188 238 Z M 272.367188 136.15625 " clip-rule="nonzero"/></clipPath></defs><g clip-path="url(#id1)"><path fill="#db0000" d="M 21.800781 127.703125 C 21.800781 127.703125 2.394531 127.703125 3.207031 145.578125 C 4.019531 163.449219 4.019531 213.003906 4.753906 224.671875 C 5.492188 236.34375 13.3125 242.542969 24.164062 241.730469 C 35.007812 240.921875 197.566406 249.484375 238.8125 249.484375 C 282.199219 249.484375 328.6875 247.9375 345.730469 247.9375 C 362.332031 247.9375 372.070312 243.285156 372.070312 230.066406 C 372.070312 216.84375 369.710938 156.359375 368.972656 144.765625 C 368.238281 133.171875 362.773438 127.703125 340.269531 129.257812 C 317.761719 130.808594 210.039062 125.339844 179.046875 128.441406 C 148.128906 131.542969 42.757812 126.894531 21.800781 127.703125 Z M 21.800781 127.703125 " fill-opacity="1" fill-rule="nonzero"/></g><g clip-path="url(#id2)"><path fill="#fde35a" d="M 315.234375 230.824219 C 317.308594 229.742188 333.253906 194.71875 337.003906 190.140625 C 337.835938 189.125 337.824219 187.671875 336.21875 187.066406 C 334.261719 186.335938 322.148438 186.945312 322.039062 184.882812 C 321.261719 169.878906 321.210938 157.035156 321.0625 140.351562 C 321.046875 138.765625 320.640625 136.6875 319.425781 136.53125 C 316.503906 136.148438 304.019531 137.070312 301.5 137.070312 C 300.605469 137.0625 300.101562 137.199219 300.292969 138.390625 C 303.015625 153.328125 301.417969 168.617188 303.394531 183.65625 C 303.550781 185.058594 302.824219 185.457031 301.585938 185.589844 C 297.839844 185.996094 287.558594 186.839844 287.175781 187.949219 C 286.765625 189.136719 304.679688 216.363281 311.632812 229.570312 C 312.339844 230.957031 313.117188 231.929688 315.234375 230.824219 Z M 305.789062 187.804688 C 307.226562 187.703125 307.464844 187.226562 307.351562 186.074219 C 305.695312 171.628906 306.8125 156.988281 304.40625 142.628906 C 304.207031 141.300781 304.265625 140.949219 305.988281 140.734375 C 310.515625 140.171875 312.800781 140.085938 316.210938 140.175781 C 318.371094 140.234375 317.960938 143.324219 317.960938 143.324219 C 318.160156 156.058594 318.164062 169.535156 318.257812 182.269531 C 318.097656 188.75 323.152344 190.214844 329.105469 189.765625 C 332.503906 189.046875 331.738281 190.871094 329.964844 193.382812 C 322.976562 202.835938 318.761719 213.824219 312.941406 223.894531 C 306.066406 212.304688 300.394531 201.574219 291.453125 189.789062 C 295.972656 188.292969 301.046875 188.410156 305.789062 187.804688 Z M 349.746094 236.597656 C 342.191406 237.851562 285.507812 238.511719 279.148438 237.433594 C 276.449219 236.972656 273.265625 235.507812 273.335938 225.8125 C 273.410156 214.671875 272.066406 200.878906 273.265625 200.730469 C 279.816406 200.191406 276.886719 218.566406 277.105469 223.152344 C 277.582031 233.082031 276.359375 233.320312 285.785156 233.410156 C 306.691406 233.167969 327.800781 236.007812 348.511719 232.15625 C 349.101562 232.042969 349.605469 232.179688 349.554688 231.113281 C 349.152344 222.089844 347.964844 201.984375 348.386719 201.273438 C 349.207031 199.90625 351.816406 203.546875 352.539062 204.808594 C 352.539062 204.808594 352.921875 209.488281 352.921875 212.398438 C 352.917969 218.902344 352.765625 225.40625 353.445312 231.886719 C 353.738281 234.734375 353.097656 236.042969 349.746094 236.597656 Z M 310.207031 181.003906 C 309.5 180.617188 309.511719 179.886719 309.425781 179.257812 C 308.117188 168.847656 307.78125 158.34375 307.527344 147.878906 C 307.546875 147.300781 307.207031 146.273438 308.320312 146.269531 C 310.855469 146.285156 310.734375 171.683594 310.207031 181.003906 Z M 316.402344 205.585938 C 316.871094 203.730469 321.910156 190.1875 324.117188 192.097656 C 324.734375 192.546875 324.433594 192.976562 324.128906 193.515625 C 321.761719 197.730469 318.777344 201.613281 317.269531 206.28125 C 317.195312 206.507812 316.890625 206.867188 316.808594 206.839844 C 316.140625 206.605469 316.628906 206.03125 316.402344 205.585938 Z M 316.402344 205.585938 " fill-opacity="1" fill-rule="nonzero"/></g></svg>