<svg xmlns="http://www.w3.org/2000/svg" xmlns:xlink="http://www.w3.org/1999/xlink" width="500" zoomAndPan="magnify" viewBox="0 0 375 374.999991" height="500" preserveAspectRatio="xMidYMid meet" version="1.0"><defs><clipPath id="id1"><path d="M 57.96875 57.96875 L 316.71875 57.96875 L 316.71875 316.71875 L 57.96875 316.71875 Z M 57.96875 57.96875 " clip-rule="nonzero"/></clipPath></defs><g clip-path="url(#id1)"><path fill="#ffdd09" d="M 187.34375 316.71875 C 258.796875 316.71875 316.71875 258.796875 316.71875 187.34375 C 316.71875 115.894531 258.796875 57.96875 187.34375 57.96875 C 115.894531 57.96875 57.96875 115.894531 57.96875 187.34375 C 57.96875 258.796875 115.894531 316.71875 187.34375 316.71875 Z M 128.585938 132.304688 L 187.34375 179.3125 L 246.105469 132.304688 L 247.800781 130.890625 L 126.890625 130.890625 Z M 254.089844 141.980469 L 256.34375 140.101562 L 256.34375 237.527344 C 256.34375 240.992188 253.539062 243.800781 250.074219 243.800781 L 124.617188 243.800781 C 121.152344 243.800781 118.34375 240.992188 118.34375 237.527344 L 118.34375 140.101562 L 120.601562 141.980469 L 120.699219 142.0625 L 183.425781 192.242188 C 185.71875 194.078125 188.972656 194.078125 191.265625 192.242188 L 253.992188 142.0625 Z M 254.089844 141.980469 " fill-opacity="1" fill-rule="evenodd"/><path fill="#000000" d="M 187.34375 57.96875 C 115.898438 57.96875 57.96875 115.898438 57.96875 187.34375 C 57.96875 258.792969 115.898438 316.71875 187.34375 316.71875 C 258.792969 316.71875 316.71875 258.792969 316.71875 187.34375 C 316.71875 115.898438 258.792969 57.96875 187.34375 57.96875 Z M 187.34375 301.753906 C 124.105469 301.753906 72.933594 250.585938 72.933594 187.34375 C 72.933594 124.105469 124.105469 72.933594 187.34375 72.933594 C 250.585938 72.933594 301.753906 124.105469 301.753906 187.34375 C 301.753906 250.585938 250.585938 301.753906 187.34375 301.753906 Z M 187.34375 301.753906 " fill-opacity="1" fill-rule="nonzero"/></g><path fill="#000000" d="M 268.058594 140.492188 L 215.972656 185.675781 L 218.71875 188.5 L 220.761719 190.585938 L 220.753906 190.59375 L 266.109375 237.246094 C 266.320312 237.464844 266.476562 237.71875 266.582031 237.984375 C 267.648438 236.429688 268.28125 234.539062 268.28125 232.496094 L 268.28125 140.265625 C 268.203125 140.339844 268.140625 140.421875 268.058594 140.492188 Z M 268.058594 140.492188 " fill-opacity="1" fill-rule="nonzero"/><path fill="#000000" d="M 265.9375 134.007812 C 265.792969 133.597656 265.351562 132.652344 264.386719 132.652344 C 264.390625 132.652344 110.304688 132.652344 110.304688 132.652344 C 109.335938 132.652344 108.894531 133.597656 108.746094 134.007812 C 108.398438 134.976562 108.46875 136.320312 109.398438 137.128906 L 180.144531 198.5 C 184.378906 202.175781 190.296875 202.175781 194.535156 198.5 L 265.285156 137.128906 C 266.21875 136.320312 266.285156 134.976562 265.9375 134.007812 Z M 265.9375 134.007812 " fill-opacity="1" fill-rule="nonzero"/><path fill="#000000" d="M 106.632812 140.492188 C 106.550781 140.421875 106.488281 140.339844 106.410156 140.265625 L 106.410156 232.492188 C 106.410156 233.96875 106.746094 235.359375 107.328125 236.605469 L 160.429688 187.164062 Z M 106.632812 140.492188 " fill-opacity="1" fill-rule="nonzero"/><path fill="#000000" d="M 215.664062 191.597656 L 212.671875 188.539062 L 197.3125 201.867188 C 194.382812 204.410156 190.863281 205.683594 187.34375 205.683594 C 183.828125 205.683594 180.3125 204.414062 177.382812 201.867188 L 163.738281 190.03125 L 110.03125 240.039062 C 111.601562 241.285156 113.570312 242.039062 115.710938 242.039062 L 258.984375 242.039062 C 260.679688 242.039062 262.269531 241.566406 263.640625 240.75 C 263.4375 240.644531 263.238281 240.535156 263.070312 240.363281 Z M 215.664062 191.597656 " fill-opacity="1" fill-rule="nonzero"/></svg>