<svg xmlns="http://www.w3.org/2000/svg" xmlns:xlink="http://www.w3.org/1999/xlink" width="500" zoomAndPan="magnify" viewBox="0 0 375 374.999991" height="500" preserveAspectRatio="xMidYMid meet" version="1.0"><defs><clipPath id="id1"><path d="M 71.070312 71.070312 L 303.570312 71.070312 L 303.570312 303.570312 L 71.070312 303.570312 Z M 71.070312 71.070312 " clip-rule="nonzero"/></clipPath></defs><g clip-path="url(#id1)"><path fill="#ffdd09" d="M 187.085938 70.949219 C 123.046875 70.949219 70.949219 123.046875 70.949219 187.085938 C 70.949219 251.125 123.046875 303.222656 187.085938 303.222656 C 251.125 303.222656 303.222656 251.125 303.222656 187.085938 C 303.222656 123.046875 251.125 70.949219 187.085938 70.949219 Z M 215.96875 191.175781 L 197.074219 191.175781 C 197.074219 221.363281 197.074219 258.527344 197.074219 258.527344 L 169.074219 258.527344 C 169.074219 258.527344 169.074219 221.722656 169.074219 191.175781 L 155.765625 191.175781 L 155.765625 167.371094 L 169.074219 167.371094 L 169.074219 151.976562 C 169.074219 140.949219 174.3125 123.722656 197.332031 123.722656 L 218.066406 123.800781 L 218.066406 146.90625 C 218.066406 146.90625 205.460938 146.90625 203.007812 146.90625 C 200.558594 146.90625 197.078125 148.132812 197.078125 153.390625 L 197.078125 167.375 L 218.410156 167.375 Z M 215.96875 191.175781 " fill-opacity="1" fill-rule="nonzero"/><path fill="#000000" d="M 187.320312 71.070312 C 123.175781 71.070312 71.070312 123.175781 71.070312 187.320312 C 71.070312 251.460938 123.175781 303.570312 187.320312 303.570312 C 251.460938 303.570312 303.570312 251.460938 303.570312 187.320312 C 303.570312 123.175781 251.460938 71.070312 187.320312 71.070312 Z M 187.320312 81.179688 C 246 81.179688 293.460938 128.640625 293.460938 187.320312 C 293.460938 246 246 293.460938 187.320312 293.460938 C 128.640625 293.460938 81.179688 246 81.179688 187.320312 C 81.179688 128.640625 128.640625 81.179688 187.320312 81.179688 Z M 195.304688 111.503906 C 181.902344 111.503906 171.738281 115.886719 165.472656 123.636719 C 159.210938 131.386719 156.992188 141.734375 156.992188 153.085938 L 156.992188 162.046875 L 146.882812 162.046875 C 146.550781 162.046875 146.222656 162.082031 145.898438 162.144531 C 145.574219 162.210938 145.257812 162.304688 144.949219 162.433594 C 144.644531 162.558594 144.351562 162.714844 144.078125 162.898438 C 143.800781 163.085938 143.546875 163.292969 143.3125 163.527344 C 143.074219 163.761719 142.867188 164.019531 142.683594 164.292969 C 142.496094 164.570312 142.34375 164.863281 142.214844 165.167969 C 142.089844 165.472656 141.992188 165.789062 141.925781 166.117188 C 141.863281 166.441406 141.832031 166.769531 141.832031 167.101562 L 141.832031 192.375 C 141.832031 192.707031 141.863281 193.035156 141.925781 193.359375 C 141.992188 193.683594 142.089844 194 142.214844 194.308594 C 142.34375 194.613281 142.496094 194.90625 142.683594 195.183594 C 142.867188 195.457031 143.078125 195.714844 143.3125 195.949219 C 143.546875 196.183594 143.800781 196.390625 144.078125 196.578125 C 144.351562 196.761719 144.644531 196.917969 144.949219 197.042969 C 145.257812 197.171875 145.574219 197.265625 145.898438 197.332031 C 146.222656 197.394531 146.554688 197.429688 146.882812 197.429688 L 156.992188 197.429688 L 156.992188 258.082031 C 156.992188 258.414062 157.027344 258.742188 157.089844 259.066406 C 157.15625 259.390625 157.25 259.707031 157.378906 260.015625 C 157.503906 260.320312 157.660156 260.613281 157.84375 260.886719 C 158.03125 261.164062 158.238281 261.417969 158.472656 261.652344 C 158.707031 261.890625 158.964844 262.097656 159.238281 262.28125 C 159.515625 262.46875 159.808594 262.621094 160.113281 262.75 C 160.421875 262.875 160.734375 262.972656 161.0625 263.039062 C 161.386719 263.101562 161.714844 263.132812 162.046875 263.132812 L 192.375 263.132812 C 192.707031 263.132812 193.035156 263.101562 193.359375 263.039062 C 193.683594 262.972656 194 262.875 194.308594 262.75 C 194.613281 262.621094 194.90625 262.46875 195.183594 262.28125 C 195.457031 262.097656 195.714844 261.886719 195.949219 261.652344 C 196.183594 261.417969 196.390625 261.164062 196.578125 260.886719 C 196.761719 260.613281 196.917969 260.320312 197.042969 260.015625 C 197.171875 259.707031 197.265625 259.390625 197.332031 259.066406 C 197.394531 258.742188 197.429688 258.410156 197.429688 258.082031 L 197.429688 197.429688 L 217.644531 197.429688 C 218.230469 197.429688 218.796875 197.328125 219.347656 197.132812 C 219.898438 196.933594 220.398438 196.652344 220.851562 196.28125 C 221.300781 195.910156 221.679688 195.472656 221.980469 194.972656 C 222.28125 194.472656 222.488281 193.933594 222.601562 193.359375 L 227.65625 168.089844 C 227.726562 167.722656 227.761719 167.351562 227.75 166.980469 C 227.742188 166.605469 227.691406 166.238281 227.601562 165.875 C 227.511719 165.511719 227.382812 165.164062 227.214844 164.832031 C 227.046875 164.496094 226.84375 164.1875 226.605469 163.898438 C 226.367188 163.609375 226.101562 163.347656 225.808594 163.117188 C 225.515625 162.886719 225.199219 162.695312 224.859375 162.535156 C 224.523438 162.375 224.171875 162.253906 223.808594 162.171875 C 223.441406 162.089844 223.074219 162.046875 222.699219 162.046875 L 197.429688 162.046875 L 197.429688 150.960938 C 197.429688 148.511719 197.585938 148.53125 198.296875 148.070312 C 199.007812 147.609375 201.574219 146.882812 206.074219 146.882812 L 222.699219 146.882812 C 223.03125 146.882812 223.359375 146.851562 223.6875 146.789062 C 224.011719 146.722656 224.328125 146.625 224.632812 146.5 C 224.941406 146.371094 225.230469 146.21875 225.507812 146.03125 C 225.785156 145.847656 226.039062 145.636719 226.273438 145.402344 C 226.507812 145.167969 226.71875 144.914062 226.902344 144.636719 C 227.085938 144.363281 227.242188 144.070312 227.371094 143.765625 C 227.496094 143.457031 227.59375 143.140625 227.65625 142.816406 C 227.722656 142.492188 227.753906 142.160156 227.753906 141.832031 L 227.753906 121.613281 C 227.753906 121.089844 227.675781 120.582031 227.515625 120.085938 C 227.359375 119.589844 227.128906 119.128906 226.828125 118.703125 C 226.53125 118.277344 226.171875 117.90625 225.757812 117.589844 C 225.339844 117.273438 224.890625 117.03125 224.398438 116.855469 C 224.398438 116.855469 209.84375 111.503906 195.304688 111.503906 Z M 195.304688 121.613281 C 204.871094 121.613281 213.742188 124.191406 217.644531 125.414062 L 217.644531 136.777344 L 206.074219 136.777344 C 200.78125 136.777344 196.488281 137.203125 192.796875 139.597656 C 189.109375 141.996094 187.320312 146.585938 187.320312 150.960938 L 187.320312 167.101562 C 187.320312 167.433594 187.351562 167.761719 187.417969 168.089844 C 187.480469 168.414062 187.578125 168.730469 187.703125 169.035156 C 187.832031 169.34375 187.988281 169.632812 188.171875 169.910156 C 188.355469 170.1875 188.566406 170.441406 188.800781 170.675781 C 189.035156 170.910156 189.289062 171.121094 189.566406 171.304688 C 189.84375 171.488281 190.132812 171.644531 190.441406 171.773438 C 190.746094 171.898438 191.0625 171.996094 191.386719 172.058594 C 191.714844 172.125 192.042969 172.15625 192.375 172.15625 L 216.53125 172.15625 L 213.5 187.320312 L 192.375 187.320312 C 192.042969 187.320312 191.714844 187.351562 191.386719 187.417969 C 191.0625 187.480469 190.746094 187.578125 190.441406 187.703125 C 190.132812 187.832031 189.839844 187.988281 189.566406 188.171875 C 189.289062 188.355469 189.035156 188.566406 188.800781 188.800781 C 188.566406 189.035156 188.355469 189.289062 188.171875 189.566406 C 187.988281 189.84375 187.832031 190.132812 187.703125 190.441406 C 187.578125 190.746094 187.480469 191.0625 187.417969 191.386719 C 187.351562 191.714844 187.320312 192.042969 187.320312 192.375 L 187.320312 253.027344 L 167.101562 253.027344 L 167.101562 192.375 C 167.101562 192.042969 167.070312 191.714844 167.003906 191.386719 C 166.941406 191.0625 166.84375 190.746094 166.71875 190.4375 C 166.589844 190.132812 166.433594 189.839844 166.25 189.566406 C 166.066406 189.289062 165.855469 189.035156 165.621094 188.800781 C 165.386719 188.566406 165.132812 188.355469 164.855469 188.171875 C 164.578125 187.988281 164.289062 187.832031 163.980469 187.703125 C 163.675781 187.578125 163.359375 187.480469 163.035156 187.417969 C 162.707031 187.351562 162.378906 187.320312 162.046875 187.320312 L 151.9375 187.320312 L 151.9375 172.15625 L 162.046875 172.15625 C 162.378906 172.15625 162.707031 172.125 163.035156 172.058594 C 163.359375 171.996094 163.675781 171.898438 163.980469 171.769531 C 164.289062 171.644531 164.578125 171.488281 164.855469 171.304688 C 165.132812 171.121094 165.386719 170.910156 165.621094 170.675781 C 165.855469 170.441406 166.066406 170.1875 166.25 169.910156 C 166.433594 169.632812 166.589844 169.34375 166.71875 169.035156 C 166.84375 168.730469 166.941406 168.414062 167.003906 168.089844 C 167.070312 167.761719 167.101562 167.433594 167.101562 167.101562 L 167.101562 153.085938 C 167.101562 143.078125 169.148438 135.167969 173.332031 129.992188 C 177.511719 124.820312 183.96875 121.613281 195.304688 121.613281 Z M 195.304688 121.613281 " fill-opacity="1" fill-rule="nonzero"/></g></svg>