<svg xmlns="http://www.w3.org/2000/svg" xmlns:xlink="http://www.w3.org/1999/xlink" width="500" zoomAndPan="magnify" viewBox="0 0 375 374.999991" height="500" preserveAspectRatio="xMidYMid meet" version="1.0"><path fill="#c5cad2" d="M 187.484375 300.210938 C 125.363281 300.210938 74.753906 249.59375 74.753906 187.484375 C 74.753906 125.363281 125.363281 74.753906 187.484375 74.753906 C 249.59375 74.753906 300.210938 125.363281 300.210938 187.484375 C 300.210938 249.59375 249.59375 300.210938 187.484375 300.210938 Z M 368.417969 171.945312 C 368.097656 168.007812 365.410156 164.679688 361.789062 163.1875 L 332.480469 151.46875 C 328.835938 136.816406 323.085938 123.042969 315.429688 110.441406 L 327.878906 81.453125 C 329.449219 77.808594 328.957031 73.550781 326.386719 70.496094 C 323.136719 66.554688 319.558594 62.738281 315.9375 59.019531 C 312.222656 55.398438 308.402344 51.828125 304.46875 48.570312 C 301.410156 46.003906 297.152344 45.519531 293.503906 47.078125 L 264.519531 59.535156 C 251.921875 51.875 238.144531 46.128906 223.496094 42.484375 L 211.773438 13.179688 C 210.28125 9.558594 206.953125 6.859375 203.019531 6.546875 C 197.878906 6.058594 192.691406 5.859375 187.484375 5.859375 C 182.269531 5.859375 177.085938 6.058594 171.945312 6.546875 C 168.007812 6.859375 164.679688 9.558594 163.1875 13.179688 L 151.46875 42.484375 C 136.816406 46.128906 123.042969 51.875 110.441406 59.535156 L 81.453125 47.078125 C 77.808594 45.519531 73.550781 46.003906 70.496094 48.570312 C 66.554688 51.828125 62.738281 55.398438 59.019531 59.019531 C 55.398438 62.738281 51.828125 66.554688 48.570312 70.496094 C 46.003906 73.550781 45.519531 77.808594 47.078125 81.453125 L 59.535156 110.441406 C 51.898438 123.042969 46.128906 136.816406 42.507812 151.46875 L 13.179688 163.1875 C 9.558594 164.679688 6.859375 168.007812 6.546875 171.945312 C 6.058594 177.085938 5.859375 182.269531 5.859375 187.484375 C 5.859375 192.691406 6.058594 197.878906 6.546875 203.019531 C 6.859375 206.953125 9.558594 210.28125 13.179688 211.773438 L 42.507812 223.496094 C 46.128906 238.144531 51.898438 251.921875 59.535156 264.519531 L 47.078125 293.503906 C 45.519531 297.152344 46.003906 301.410156 48.570312 304.46875 C 51.828125 308.402344 55.398438 312.222656 59.019531 315.9375 C 62.738281 319.558594 66.554688 323.136719 70.496094 326.386719 C 73.550781 328.957031 77.808594 329.449219 81.453125 327.878906 L 110.441406 315.429688 C 123.042969 323.058594 136.816406 328.835938 151.46875 332.457031 L 163.1875 361.789062 C 164.679688 365.410156 168.007812 368.097656 171.945312 368.417969 C 177.085938 368.910156 182.269531 369.101562 187.484375 369.101562 C 192.691406 369.101562 197.878906 368.910156 203.019531 368.417969 C 206.953125 368.097656 210.28125 365.410156 211.773438 361.789062 L 223.496094 332.457031 C 238.144531 328.835938 251.921875 323.058594 264.519531 315.429688 L 293.503906 327.878906 C 297.152344 329.449219 301.410156 328.957031 304.46875 326.386719 C 308.402344 323.136719 312.222656 319.558594 315.9375 315.9375 C 319.558594 312.222656 323.136719 308.402344 326.386719 304.46875 C 328.957031 301.410156 329.449219 297.152344 327.878906 293.503906 L 315.429688 264.519531 C 323.085938 251.921875 328.835938 238.144531 332.480469 223.496094 L 361.789062 211.773438 C 365.410156 210.28125 368.097656 206.953125 368.417969 203.019531 C 368.910156 197.878906 369.101562 192.691406 369.101562 187.484375 C 369.101562 182.269531 368.910156 177.085938 368.417969 171.945312 " fill-opacity="1" fill-rule="nonzero"/><path fill="#f9a738" d="M 187.484375 281.425781 C 135.667969 281.425781 93.539062 239.300781 93.539062 187.484375 C 93.539062 135.667969 135.667969 93.539062 187.484375 93.539062 C 239.300781 93.539062 281.425781 135.667969 281.425781 187.484375 C 281.425781 239.300781 239.300781 281.425781 187.484375 281.425781 " fill-opacity="1" fill-rule="nonzero"/><path fill="#2b2c2d" d="M 187.484375 99.800781 C 235.824219 99.800781 275.160156 139.140625 275.160156 187.484375 C 275.160156 235.824219 235.824219 275.160156 187.484375 275.160156 C 139.140625 275.160156 99.800781 235.824219 99.800781 187.484375 C 99.800781 139.140625 139.140625 99.800781 187.484375 99.800781 Z M 187.484375 287.683594 C 242.746094 287.683594 287.683594 242.746094 287.683594 187.484375 C 287.683594 132.21875 242.746094 87.273438 187.484375 87.273438 C 132.21875 87.273438 87.273438 132.21875 87.273438 187.484375 C 87.273438 242.746094 132.21875 287.683594 187.484375 287.683594 " fill-opacity="1" fill-rule="nonzero"/><path fill="#2b2c2d" d="M 362.203125 202.425781 C 362.054688 203.96875 360.980469 205.339844 359.4375 205.953125 L 330.15625 217.667969 C 328.292969 218.402344 326.902344 220.019531 326.414062 221.976562 C 322.964844 235.824219 317.480469 249.058594 310.09375 261.285156 C 309.042969 263 308.894531 265.128906 309.703125 266.992188 L 322.128906 296.003906 C 322.765625 297.523438 322.570312 299.253906 321.59375 300.429688 C 318.488281 304.175781 315.085938 307.867188 311.464844 311.488281 C 307.867188 315.085938 304.152344 318.488281 300.429688 321.59375 C 299.253906 322.570312 297.546875 322.792969 296.003906 322.128906 L 266.992188 309.703125 C 265.128906 308.894531 263 309.042969 261.285156 310.09375 C 249.058594 317.480469 235.824219 322.964844 221.976562 326.414062 C 220.019531 326.902344 218.402344 328.292969 217.667969 330.15625 L 205.953125 359.4375 C 205.339844 360.953125 203.96875 362.054688 202.453125 362.175781 C 192.839844 363.039062 182.097656 363.039062 172.535156 362.175781 C 170.992188 362.054688 169.621094 360.953125 169.007812 359.4375 L 157.289062 330.15625 C 156.558594 328.292969 154.945312 326.902344 152.988281 326.414062 C 139.140625 322.964844 125.90625 317.480469 113.671875 310.09375 C 112.691406 309.480469 111.570312 309.1875 110.441406 309.1875 C 109.613281 309.1875 108.757812 309.359375 107.972656 309.703125 L 78.960938 322.128906 C 77.445312 322.792969 75.703125 322.570312 74.53125 321.59375 C 70.8125 318.488281 67.089844 315.085938 63.46875 311.464844 C 59.875 307.867188 56.476562 304.175781 53.371094 300.429688 C 52.390625 299.253906 52.167969 297.523438 52.832031 296.003906 L 65.261719 266.992188 C 66.066406 265.128906 65.917969 263 64.867188 261.285156 C 57.476562 249.058594 52 235.824219 48.550781 221.976562 C 48.0625 220.019531 46.664062 218.402344 44.804688 217.667969 L 15.523438 205.953125 C 14.007812 205.339844 12.902344 203.96875 12.78125 202.453125 C 12.34375 197.632812 12.125 192.621094 12.125 187.484375 C 12.125 182.34375 12.34375 177.328125 12.78125 172.535156 C 12.902344 170.992188 14.007812 169.621094 15.523438 169.007812 L 44.804688 157.289062 C 46.664062 156.558594 48.0625 154.945312 48.550781 152.988281 C 52 139.140625 57.476562 125.90625 64.867188 113.671875 C 65.917969 111.957031 66.066406 109.828125 65.261719 107.972656 L 52.832031 78.960938 C 52.167969 77.445312 52.390625 75.703125 53.371094 74.53125 C 56.476562 70.8125 59.875 67.089844 63.496094 63.46875 C 67.089844 59.875 70.789062 56.476562 74.53125 53.371094 C 75.679688 52.390625 77.417969 52.191406 78.960938 52.832031 L 107.972656 65.261719 C 109.828125 66.066406 111.957031 65.917969 113.671875 64.867188 C 125.90625 57.476562 139.140625 52 152.988281 48.550781 C 154.945312 48.0625 156.558594 46.664062 157.289062 44.804688 L 169.007812 15.523438 C 169.621094 13.980469 170.992188 12.902344 172.507812 12.757812 C 182.121094 11.929688 192.863281 11.929688 202.425781 12.757812 C 203.96875 12.902344 205.339844 13.980469 205.953125 15.523438 L 217.667969 44.804688 C 218.402344 46.664062 220.019531 48.0625 221.976562 48.550781 C 235.824219 52 249.058594 57.476562 261.285156 64.867188 C 263 65.917969 265.128906 66.066406 266.992188 65.261719 L 296.003906 52.832031 C 297.523438 52.167969 299.253906 52.390625 300.429688 53.371094 C 304.175781 56.476562 307.867188 59.875 311.488281 63.496094 C 315.085938 67.089844 318.488281 70.8125 321.59375 74.53125 C 322.570312 75.703125 322.765625 77.445312 322.128906 78.960938 L 309.703125 107.972656 C 308.894531 109.828125 309.042969 111.957031 310.09375 113.671875 C 317.480469 125.90625 322.964844 139.140625 326.414062 152.988281 C 326.902344 154.945312 328.292969 156.558594 330.15625 157.289062 L 359.4375 169.007812 C 360.980469 169.621094 362.054688 170.992188 362.203125 172.507812 C 362.617188 177.328125 362.839844 182.34375 362.839844 187.484375 C 362.839844 192.621094 362.617188 197.632812 362.203125 202.425781 Z M 364.089844 157.394531 L 337.761719 146.847656 C 334.265625 133.953125 329.128906 121.570312 322.449219 110 L 333.65625 83.902344 C 336.171875 77.980469 335.242188 71.324219 331.207031 66.503906 C 327.878906 62.496094 324.207031 58.503906 320.34375 54.640625 C 316.480469 50.753906 312.492188 47.105469 308.453125 43.734375 C 303.636719 39.71875 296.980469 38.785156 291.0625 41.3125 L 264.957031 52.511719 C 253.386719 45.835938 241.007812 40.699219 228.117188 37.199219 L 217.574219 10.875 C 215.203125 4.929688 209.839844 0.867188 203.578125 0.28125 C 193.234375 -0.625 181.757812 -0.625 171.386719 0.28125 C 165.121094 0.867188 159.765625 4.929688 157.394531 10.875 L 146.847656 37.199219 C 133.953125 40.699219 121.570312 45.835938 110 52.511719 L 83.902344 41.3125 C 77.980469 38.785156 71.324219 39.71875 66.480469 43.734375 C 62.46875 47.105469 58.484375 50.753906 54.640625 54.617188 C 50.753906 58.503906 47.078125 62.496094 43.753906 66.503906 C 39.71875 71.324219 38.785156 77.980469 41.328125 83.902344 L 52.511719 110 C 45.835938 121.570312 40.699219 133.953125 37.199219 146.847656 L 10.875 157.394531 C 4.929688 159.765625 0.867188 165.121094 0.28125 171.386719 C -0.160156 176.570312 -0.402344 181.976562 -0.402344 187.484375 C -0.402344 192.984375 -0.160156 198.390625 0.28125 203.578125 C 0.867188 209.839844 4.929688 215.203125 10.875 217.574219 L 37.199219 228.117188 C 40.699219 241.007812 45.835938 253.386719 52.511719 264.957031 L 41.3125 291.0625 C 38.785156 296.980469 39.71875 303.636719 43.753906 308.480469 C 47.105469 312.492188 50.753906 316.480469 54.617188 320.320312 C 58.503906 324.207031 62.496094 327.878906 66.503906 331.207031 C 71.324219 335.242188 77.980469 336.171875 83.902344 333.628906 L 110 322.449219 C 121.570312 329.128906 133.953125 334.265625 146.847656 337.761719 L 157.394531 364.089844 C 159.765625 370.03125 165.121094 374.09375 171.386719 374.679688 C 176.570312 375.117188 181.976562 375.367188 187.484375 375.367188 C 192.984375 375.367188 198.390625 375.117188 203.578125 374.679688 C 209.839844 374.09375 215.203125 370.03125 217.574219 364.089844 L 228.117188 337.761719 C 241.007812 334.265625 253.386719 329.128906 264.957031 322.449219 L 291.0625 333.65625 C 296.980469 336.148438 303.636719 335.242188 308.453125 331.207031 C 312.464844 327.878906 316.457031 324.207031 320.320312 320.34375 C 324.207031 316.480469 327.855469 312.492188 331.234375 308.453125 C 335.242188 303.636719 336.171875 296.980469 333.65625 291.0625 L 322.449219 264.957031 C 329.128906 253.386719 334.265625 241.007812 337.761719 228.117188 L 364.089844 217.574219 C 370.03125 215.203125 374.09375 209.839844 374.679688 203.578125 C 375.144531 198.390625 375.367188 192.984375 375.367188 187.484375 C 375.367188 181.976562 375.144531 176.570312 374.679688 171.386719 C 374.09375 165.121094 370.03125 159.765625 364.089844 157.394531 " fill-opacity="1" fill-rule="nonzero"/><path fill="#2b2c2d" d="M 187.484375 62.226562 C 131.089844 62.226562 81.378906 100.171875 66.605469 154.53125 C 65.703125 157.851562 67.675781 161.308594 71.003906 162.210938 C 74.332031 163.136719 77.78125 161.136719 78.6875 157.808594 C 92 108.90625 136.746094 74.753906 187.484375 74.753906 C 249.644531 74.753906 300.210938 125.320312 300.210938 187.484375 C 300.210938 249.644531 249.644531 300.210938 187.484375 300.210938 C 125.320312 300.210938 74.753906 249.644531 74.753906 187.484375 C 74.753906 184.035156 71.9375 181.214844 68.488281 181.214844 C 65.039062 181.214844 62.226562 184.035156 62.226562 187.484375 C 62.226562 256.542969 118.417969 312.738281 187.484375 312.738281 C 256.542969 312.738281 312.738281 256.542969 312.738281 187.484375 C 312.738281 118.417969 256.542969 62.226562 187.484375 62.226562 " fill-opacity="1" fill-rule="nonzero"/><path fill="#2b2c2d" d="M 212.53125 193.742188 C 215.980469 193.742188 218.796875 196.554688 218.796875 200.011719 C 218.796875 203.457031 215.980469 206.269531 212.53125 206.269531 C 210.304688 206.269531 208.226562 205.070312 207.097656 203.140625 C 205.363281 200.132812 201.546875 199.105469 198.539062 200.863281 C 195.554688 202.574219 194.527344 206.417969 196.261719 209.398438 C 199.613281 215.203125 205.855469 218.796875 212.53125 218.796875 C 222.902344 218.796875 231.324219 210.382812 231.324219 200.011719 C 231.324219 189.632812 222.902344 181.214844 212.53125 181.214844 C 209.082031 181.214844 206.269531 178.40625 206.269531 174.957031 C 206.269531 171.507812 209.082031 168.695312 212.53125 168.695312 C 214.761719 168.695312 216.839844 169.894531 217.960938 171.824219 C 219.675781 174.808594 223.515625 175.863281 226.523438 174.101562 C 229.511719 172.386719 230.539062 168.542969 228.800781 165.558594 C 225.453125 159.765625 219.210938 156.167969 212.53125 156.167969 C 202.160156 156.167969 193.742188 164.585938 193.742188 174.957031 C 193.742188 185.328125 202.160156 193.742188 212.53125 193.742188 " fill-opacity="1" fill-rule="nonzero"/><path fill="#2b2c2d" d="M 162.429688 218.796875 C 172.800781 218.796875 181.214844 210.382812 181.214844 200.011719 L 181.214844 168.695312 C 184.664062 168.695312 187.484375 165.878906 187.484375 162.429688 C 187.484375 158.980469 184.664062 156.167969 181.214844 156.167969 L 156.167969 156.167969 C 152.71875 156.167969 149.902344 158.980469 149.902344 162.429688 C 149.902344 165.878906 152.71875 168.695312 156.167969 168.695312 L 168.695312 168.695312 L 168.695312 200.011719 C 168.695312 203.457031 165.878906 206.269531 162.429688 206.269531 C 158.980469 206.269531 156.167969 203.457031 156.167969 200.011719 L 156.167969 193.742188 C 156.167969 190.292969 153.351562 187.484375 149.902344 187.484375 C 146.453125 187.484375 143.640625 190.292969 143.640625 193.742188 L 143.640625 200.011719 C 143.640625 210.382812 152.058594 218.796875 162.429688 218.796875 " fill-opacity="1" fill-rule="nonzero"/><path fill="#2b2c2d" d="M 135.910156 212.53125 C 135.910156 209.082031 133.097656 206.269531 129.648438 206.269531 L 129.648438 202.96875 C 129.648438 200.054688 128.960938 197.148438 127.667969 194.578125 L 125.511719 190.292969 C 124.632812 188.535156 124.632812 186.429688 125.511719 184.664062 L 127.667969 180.386719 C 128.960938 177.820312 129.648438 174.90625 129.648438 172 L 129.648438 168.695312 C 133.097656 168.695312 135.910156 165.878906 135.910156 162.429688 C 135.910156 158.980469 133.097656 156.167969 129.648438 156.167969 C 122.726562 156.167969 117.121094 161.792969 117.121094 168.695312 L 117.121094 172 C 117.121094 172.972656 116.878906 173.929688 116.441406 174.785156 L 114.3125 179.085938 C 111.691406 184.351562 111.691406 190.613281 114.3125 195.898438 L 116.441406 200.175781 C 116.878906 201.035156 117.121094 201.984375 117.121094 202.96875 L 117.121094 206.269531 C 117.121094 213.167969 122.726562 218.796875 129.648438 218.796875 C 133.097656 218.796875 135.910156 215.980469 135.910156 212.53125 " fill-opacity="1" fill-rule="nonzero"/><path fill="#2b2c2d" d="M 239.050781 212.53125 C 239.050781 215.980469 241.863281 218.796875 245.316406 218.796875 C 252.242188 218.796875 257.835938 213.167969 257.835938 206.269531 L 257.835938 202.96875 C 257.835938 201.984375 258.085938 201.035156 258.527344 200.175781 L 260.65625 195.871094 C 263.269531 190.613281 263.269531 184.351562 260.65625 179.066406 L 258.527344 174.785156 C 258.085938 173.929688 257.835938 172.972656 257.835938 172 L 257.835938 168.695312 C 257.835938 161.792969 252.242188 156.167969 245.316406 156.167969 C 241.863281 156.167969 239.050781 158.980469 239.050781 162.429688 C 239.050781 165.878906 241.863281 168.695312 245.316406 168.695312 L 245.316406 172 C 245.316406 174.90625 246 177.820312 247.292969 180.386719 L 249.449219 184.664062 C 250.328125 186.429688 250.328125 188.535156 249.449219 190.292969 L 247.292969 194.578125 C 246 197.148438 245.316406 200.054688 245.316406 202.96875 L 245.335938 206.269531 L 245.316406 206.269531 C 241.863281 206.269531 239.050781 209.082031 239.050781 212.53125 " fill-opacity="1" fill-rule="nonzero"/></svg>