<svg xmlns="http://www.w3.org/2000/svg" xmlns:xlink="http://www.w3.org/1999/xlink" width="500" zoomAndPan="magnify" viewBox="0 0 375 374.999991" height="500" preserveAspectRatio="xMidYMid meet" version="1.0"><defs><clipPath id="id1"><path d="M 54.683594 54.683594 L 320.183594 54.683594 L 320.183594 320.183594 L 54.683594 320.183594 Z M 54.683594 54.683594 " clip-rule="nonzero"/></clipPath></defs><g clip-path="url(#id1)"><path fill="#ffdd09" d="M 187.433594 54.683594 C 114.121094 54.683594 54.683594 114.121094 54.683594 187.433594 C 54.683594 260.746094 114.121094 320.183594 187.433594 320.183594 C 260.746094 320.183594 320.183594 260.746094 320.183594 187.433594 C 320.183594 114.121094 260.746094 54.683594 187.433594 54.683594 Z M 137.609375 114.453125 C 146.921875 114.453125 153.128906 120.660156 153.128906 128.933594 C 153.128906 137.210938 146.921875 143.414062 136.578125 143.414062 C 127.265625 143.425781 121.058594 137.210938 121.058594 128.933594 C 121.058594 120.660156 127.265625 114.453125 137.609375 114.453125 Z M 154.246094 242.746094 L 121.058594 242.746094 L 121.058594 154.246094 L 154.246094 154.246094 Z M 264.871094 242.746094 L 233.628906 242.746094 L 233.628906 194.378906 C 233.628906 181.003906 225.300781 177.917969 222.179688 177.917969 C 219.0625 177.917969 208.640625 179.976562 208.640625 194.378906 C 208.640625 196.4375 208.640625 242.746094 208.640625 242.746094 L 176.371094 242.746094 L 176.371094 154.246094 L 208.652344 154.246094 L 208.652344 166.589844 C 212.808594 159.390625 221.140625 154.246094 236.761719 154.246094 C 252.382812 154.246094 264.871094 166.589844 264.871094 194.378906 Z M 264.871094 242.746094 " fill-opacity="1" fill-rule="nonzero"/><path fill="#000000" d="M 187.433594 54.683594 C 114.1875 54.683594 54.683594 114.1875 54.683594 187.433594 C 54.683594 260.679688 114.1875 320.183594 187.433594 320.183594 C 260.679688 320.183594 320.183594 260.679688 320.183594 187.433594 C 320.183594 114.1875 260.679688 54.683594 187.433594 54.683594 Z M 187.433594 66.226562 C 254.441406 66.226562 308.640625 120.425781 308.640625 187.433594 C 308.640625 254.441406 254.441406 308.640625 187.433594 308.640625 C 120.425781 308.640625 66.226562 254.441406 66.226562 187.433594 C 66.226562 120.425781 120.425781 66.226562 187.433594 66.226562 Z M 135.488281 112.402344 C 125.992188 112.402344 118.171875 120.222656 118.171875 129.714844 C 118.171875 139.210938 125.992188 147.03125 135.488281 147.03125 C 144.980469 147.03125 152.800781 139.210938 152.800781 129.714844 C 152.800781 120.222656 144.980469 112.402344 135.488281 112.402344 Z M 135.488281 123.945312 C 138.742188 123.945312 141.257812 126.460938 141.257812 129.714844 C 141.257812 132.972656 138.742188 135.488281 135.488281 135.488281 C 132.230469 135.488281 129.714844 132.972656 129.714844 129.714844 C 129.714844 126.460938 132.230469 123.945312 135.488281 123.945312 Z M 123.945312 152.800781 C 123.566406 152.800781 123.191406 152.839844 122.816406 152.914062 C 122.445312 152.988281 122.085938 153.097656 121.734375 153.242188 C 121.386719 153.386719 121.050781 153.566406 120.738281 153.777344 C 120.421875 153.984375 120.128906 154.226562 119.863281 154.492188 C 119.59375 154.761719 119.355469 155.054688 119.144531 155.367188 C 118.933594 155.683594 118.757812 156.015625 118.613281 156.367188 C 118.464844 156.714844 118.355469 157.078125 118.28125 157.449219 C 118.210938 157.820312 118.171875 158.195312 118.171875 158.574219 L 118.171875 245.152344 C 118.171875 245.53125 118.210938 245.90625 118.285156 246.277344 C 118.355469 246.648438 118.46875 247.007812 118.613281 247.359375 C 118.757812 247.710938 118.933594 248.042969 119.144531 248.355469 C 119.355469 248.671875 119.59375 248.964844 119.863281 249.230469 C 120.132812 249.5 120.421875 249.738281 120.738281 249.949219 C 121.054688 250.160156 121.386719 250.335938 121.734375 250.484375 C 122.085938 250.628906 122.445312 250.738281 122.816406 250.8125 C 123.191406 250.886719 123.566406 250.921875 123.945312 250.921875 L 147.03125 250.921875 C 147.410156 250.921875 147.785156 250.886719 148.15625 250.8125 C 148.527344 250.738281 148.890625 250.628906 149.238281 250.484375 C 149.589844 250.335938 149.921875 250.160156 150.238281 249.949219 C 150.550781 249.738281 150.84375 249.5 151.113281 249.230469 C 151.378906 248.964844 151.621094 248.671875 151.828125 248.355469 C 152.039062 248.042969 152.21875 247.710938 152.363281 247.359375 C 152.507812 247.007812 152.617188 246.648438 152.691406 246.277344 C 152.765625 245.90625 152.800781 245.53125 152.800781 245.152344 L 152.800781 158.574219 C 152.800781 158.195312 152.765625 157.820312 152.691406 157.449219 C 152.617188 157.078125 152.507812 156.714844 152.363281 156.367188 C 152.21875 156.015625 152.039062 155.683594 151.828125 155.367188 C 151.617188 155.050781 151.378906 154.761719 151.113281 154.492188 C 150.84375 154.226562 150.550781 153.984375 150.238281 153.773438 C 149.921875 153.566406 149.589844 153.386719 149.238281 153.242188 C 148.890625 153.097656 148.527344 152.988281 148.15625 152.914062 C 147.785156 152.839844 147.410156 152.800781 147.03125 152.800781 Z M 170.117188 152.800781 C 169.738281 152.800781 169.363281 152.839844 168.992188 152.914062 C 168.621094 152.988281 168.257812 153.097656 167.910156 153.242188 C 167.558594 153.386719 167.226562 153.566406 166.910156 153.777344 C 166.597656 153.984375 166.304688 154.226562 166.035156 154.492188 C 165.769531 154.761719 165.53125 155.054688 165.320312 155.367188 C 165.109375 155.683594 164.929688 156.015625 164.785156 156.367188 C 164.640625 156.714844 164.53125 157.078125 164.457031 157.449219 C 164.382812 157.820312 164.347656 158.195312 164.347656 158.574219 L 164.347656 245.152344 C 164.347656 245.53125 164.382812 245.90625 164.457031 246.277344 C 164.53125 246.648438 164.640625 247.007812 164.785156 247.359375 C 164.929688 247.710938 165.109375 248.042969 165.320312 248.355469 C 165.53125 248.671875 165.769531 248.964844 166.035156 249.230469 C 166.304688 249.5 166.597656 249.738281 166.910156 249.949219 C 167.226562 250.160156 167.558594 250.335938 167.910156 250.484375 C 168.257812 250.628906 168.621094 250.738281 168.992188 250.8125 C 169.363281 250.886719 169.738281 250.921875 170.117188 250.921875 L 193.203125 250.921875 C 193.582031 250.921875 193.960938 250.886719 194.332031 250.8125 C 194.703125 250.738281 195.0625 250.628906 195.414062 250.484375 C 195.765625 250.335938 196.097656 250.160156 196.410156 249.949219 C 196.726562 249.738281 197.019531 249.5 197.285156 249.230469 C 197.554688 248.964844 197.792969 248.671875 198.003906 248.355469 C 198.214844 248.042969 198.390625 247.710938 198.539062 247.359375 C 198.683594 247.007812 198.792969 246.648438 198.867188 246.277344 C 198.941406 245.90625 198.976562 245.53125 198.976562 245.152344 L 198.976562 201.863281 C 198.976562 193.898438 205.445312 187.433594 213.40625 187.433594 C 221.367188 187.433594 227.835938 193.898438 227.835938 201.863281 L 227.835938 245.152344 C 227.835938 245.53125 227.871094 245.90625 227.945312 246.277344 C 228.019531 246.648438 228.128906 247.007812 228.273438 247.359375 C 228.421875 247.710938 228.597656 248.042969 228.808594 248.355469 C 229.019531 248.671875 229.257812 248.964844 229.527344 249.230469 C 229.792969 249.5 230.085938 249.738281 230.402344 249.949219 C 230.714844 250.160156 231.046875 250.335938 231.398438 250.484375 C 231.75 250.628906 232.109375 250.738281 232.480469 250.8125 C 232.851562 250.886719 233.226562 250.921875 233.605469 250.921875 L 256.695312 250.921875 C 257.074219 250.921875 257.449219 250.886719 257.820312 250.8125 C 258.191406 250.738281 258.550781 250.628906 258.902344 250.484375 C 259.253906 250.335938 259.585938 250.160156 259.902344 249.949219 C 260.214844 249.738281 260.507812 249.5 260.773438 249.230469 C 261.042969 248.964844 261.28125 248.671875 261.492188 248.355469 C 261.703125 248.042969 261.882812 247.710938 262.027344 247.359375 C 262.171875 247.007812 262.28125 246.648438 262.355469 246.277344 C 262.429688 245.90625 262.464844 245.53125 262.464844 245.152344 L 262.464844 196.089844 C 262.464844 172.25 243.015625 152.800781 219.175781 152.800781 C 211.753906 152.800781 205.09375 155.203125 198.976562 158.519531 C 198.972656 158.140625 198.933594 157.769531 198.855469 157.398438 C 198.777344 157.03125 198.667969 156.671875 198.519531 156.328125 C 198.375 155.980469 198.195312 155.648438 197.984375 155.339844 C 197.773438 155.027344 197.535156 154.738281 197.265625 154.472656 C 197 154.207031 196.707031 153.972656 196.394531 153.761719 C 196.078125 153.554688 195.75 153.378906 195.402344 153.238281 C 195.050781 153.09375 194.691406 152.984375 194.324219 152.914062 C 193.953125 152.839844 193.582031 152.800781 193.203125 152.800781 Z M 129.714844 164.347656 L 141.257812 164.347656 L 141.257812 239.378906 L 129.714844 239.378906 Z M 175.890625 164.347656 L 187.433594 164.347656 L 187.433594 169.058594 C 187.433594 169.625 187.515625 170.179688 187.675781 170.71875 C 187.839844 171.261719 188.078125 171.769531 188.390625 172.242188 C 188.703125 172.714844 189.078125 173.128906 189.511719 173.492188 C 189.945312 173.855469 190.425781 174.148438 190.945312 174.367188 C 191.464844 174.589844 192.007812 174.730469 192.570312 174.792969 C 193.132812 174.855469 193.691406 174.835938 194.25 174.734375 C 194.804688 174.632812 195.335938 174.453125 195.839844 174.195312 C 196.34375 173.9375 196.796875 173.609375 197.207031 173.21875 C 202.925781 167.722656 210.617188 164.347656 219.175781 164.347656 C 236.777344 164.347656 250.921875 178.488281 250.921875 196.089844 L 250.921875 239.378906 L 239.378906 239.378906 L 239.378906 201.863281 C 239.378906 187.605469 227.664062 175.890625 213.40625 175.890625 C 199.148438 175.890625 187.433594 187.605469 187.433594 201.863281 L 187.433594 239.378906 L 175.890625 239.378906 Z M 175.890625 164.347656 " fill-opacity="1" fill-rule="nonzero"/></g></svg>