<svg xmlns="http://www.w3.org/2000/svg" xmlns:xlink="http://www.w3.org/1999/xlink" width="200" zoomAndPan="magnify" viewBox="0 0 150 149.999998" height="200" preserveAspectRatio="xMidYMid meet" version="1.0"><defs><clipPath id="ac00ea8b93"><path d="M 81 114 L 119.640625 114 L 119.640625 150 L 81 150 Z M 81 114 " clip-rule="nonzero"/></clipPath><clipPath id="fe52081c44"><path d="M 30.390625 114 L 69 114 L 69 150 L 30.390625 150 Z M 30.390625 114 " clip-rule="nonzero"/></clipPath><clipPath id="f228d77a23"><path d="M 29.269531 0 L 120.769531 0 L 120.769531 150 L 29.269531 150 Z M 29.269531 0 " clip-rule="nonzero"/></clipPath><clipPath id="7a8d660931"><path d="M 83.332031 58.363281 L 105.710938 58.363281 L 105.710938 75.066406 L 83.332031 75.066406 Z M 83.332031 58.363281 " clip-rule="nonzero"/></clipPath><clipPath id="e36df0d440"><path d="M 46.195312 57 L 70 57 L 70 72 L 46.195312 72 Z M 46.195312 57 " clip-rule="nonzero"/></clipPath><clipPath id="71761471a9"><path d="M 83.015625 49.296875 L 106.109375 49.296875 L 106.109375 54.335938 L 83.015625 54.335938 Z M 83.015625 49.296875 " clip-rule="nonzero"/></clipPath><clipPath id="d50a8888dc"><path d="M 46.195312 49 L 71 49 L 71 55 L 46.195312 55 Z M 46.195312 49 " clip-rule="nonzero"/></clipPath><clipPath id="9f46f5a1b7"><path d="M 68.441406 62.089844 L 81.191406 62.089844 L 81.191406 81.589844 L 68.441406 81.589844 Z M 68.441406 62.089844 " clip-rule="nonzero"/></clipPath><clipPath id="25b0eb6e67"><path d="M 67 89 L 85 89 L 85 94.273438 L 67 94.273438 Z M 67 89 " clip-rule="nonzero"/></clipPath><clipPath id="1fc0cf52ba"><path d="M 61.160156 84.523438 L 63 84.523438 L 63 87 L 61.160156 87 Z M 61.160156 84.523438 " clip-rule="nonzero"/></clipPath><clipPath id="56c7b8ca71"><path d="M 89 84.523438 L 91.160156 84.523438 L 91.160156 87 L 89 87 Z M 89 84.523438 " clip-rule="nonzero"/></clipPath></defs><path fill="#fde35a" d="M 83.714844 106.246094 L 83.714844 100.980469 C 81.863281 101.328125 79.964844 101.53125 78.015625 101.53125 L 72.019531 101.53125 C 70.066406 101.53125 68.167969 101.328125 66.316406 100.980469 L 66.316406 106.246094 L 75.015625 111.285156 Z M 83.714844 106.246094 " fill-opacity="1" fill-rule="nonzero"/><path fill="#fde35a" d="M 78.746094 125.230469 L 80.457031 119.234375 L 75.015625 114.792969 L 69.574219 119.234375 L 71.285156 125.230469 Z M 78.746094 125.230469 " fill-opacity="1" fill-rule="nonzero"/><path fill="#fde35a" d="M 58.570312 113.417969 L 62.265625 121.507812 L 72.507812 113.144531 L 64.972656 108.777344 Z M 58.570312 113.417969 " fill-opacity="1" fill-rule="nonzero"/><path fill="#fde35a" d="M 108.65625 54.757812 L 108.65625 70.777344 C 108.65625 72.410156 108.492188 74.003906 108.246094 75.570312 C 112.753906 74.972656 116.277344 70.550781 116.277344 65.140625 C 116.277344 59.894531 112.964844 55.5625 108.65625 54.757812 Z M 108.65625 54.757812 " fill-opacity="1" fill-rule="nonzero"/><path fill="#fde35a" d="M 91.460938 113.417969 L 85.058594 108.777344 L 77.523438 113.144531 L 87.765625 121.507812 Z M 91.460938 113.417969 " fill-opacity="1" fill-rule="nonzero"/><path fill="#fde35a" d="M 43.316406 51.722656 C 80.917969 51.519531 90.019531 29.382812 90.105469 29.15625 C 90.355469 28.515625 91.019531 28.144531 91.703125 28.269531 C 92.378906 28.394531 92.867188 28.988281 92.867188 29.675781 C 92.867188 42.707031 103.652344 49.601562 106.898438 51.378906 C 117.765625 39.023438 116.289062 27.121094 111.179688 20.003906 C 106.351562 13.285156 98.542969 11.8125 98.46875 11.796875 C 97.949219 11.707031 97.527344 11.332031 97.359375 10.835938 C 97.195312 10.335938 97.316406 9.785156 97.675781 9.402344 L 99.828125 7.128906 L 94.113281 8.5625 C 93.6875 8.664062 93.230469 8.570312 92.886719 8.300781 C 92.539062 8.027344 92.335938 7.613281 92.335938 7.171875 L 92.335938 1.257812 C 90.523438 2.523438 90.230469 4.167969 90.230469 4.1875 C 90.152344 4.671875 89.828125 5.085938 89.375 5.273438 C 88.925781 5.460938 88.410156 5.410156 88.007812 5.132812 C 84.277344 2.550781 78.886719 1.125 72.828125 1.125 C 61.554688 1.125 45.894531 6.53125 38.863281 21.753906 C 30.667969 39.5 41.222656 49.894531 43.316406 51.722656 Z M 43.316406 51.722656 " fill-opacity="1" fill-rule="nonzero"/><g clip-path="url(#ac00ea8b93)"><path fill="#fde35a" d="M 94.105469 114.515625 L 89.597656 124.382812 C 89.414062 124.789062 89.054688 125.085938 88.617188 125.183594 C 88.511719 125.210938 88.402344 125.222656 88.292969 125.222656 C 87.96875 125.222656 87.648438 125.109375 87.394531 124.902344 L 82.867188 121.207031 L 81.273438 126.796875 L 83.390625 149.4375 L 119.609375 149.4375 C 118.925781 120.617188 98.90625 115.347656 94.105469 114.515625 Z M 94.105469 114.515625 " fill-opacity="1" fill-rule="nonzero"/></g><path fill="#fde35a" d="M 71.507812 128.097656 L 69.515625 149.4375 L 80.515625 149.4375 L 78.523438 128.097656 Z M 71.507812 128.097656 " fill-opacity="1" fill-rule="nonzero"/><path fill="#fde35a" d="M 105.796875 70.777344 L 105.796875 54.046875 C 102.769531 52.460938 92.644531 46.347656 90.4375 34.410156 C 85.785156 41.285156 73.195312 54.128906 44.238281 54.550781 L 44.238281 70.777344 C 44.238281 86.15625 56.699219 98.664062 72.019531 98.664062 L 78.015625 98.664062 C 93.332031 98.664062 105.796875 86.15625 105.796875 70.777344 Z M 105.796875 70.777344 " fill-opacity="1" fill-rule="nonzero"/><g clip-path="url(#fe52081c44)"><path fill="#fde35a" d="M 62.636719 124.902344 C 62.382812 125.109375 62.0625 125.222656 61.738281 125.222656 C 61.628906 125.222656 61.519531 125.210938 61.414062 125.183594 C 60.980469 125.085938 60.621094 124.789062 60.4375 124.382812 L 55.925781 114.515625 C 51.128906 115.347656 31.109375 120.613281 30.421875 149.433594 L 66.640625 149.433594 L 68.761719 126.792969 L 67.164062 121.203125 Z M 62.636719 124.902344 " fill-opacity="1" fill-rule="nonzero"/></g><path fill="#fde35a" d="M 41.789062 75.570312 C 41.542969 74.003906 41.375 72.414062 41.375 70.777344 L 41.375 54.757812 C 37.066406 55.5625 33.753906 59.894531 33.753906 65.140625 C 33.753906 70.550781 37.28125 74.972656 41.789062 75.570312 Z M 41.789062 75.570312 " fill-opacity="1" fill-rule="nonzero"/><g clip-path="url(#f228d77a23)"><path fill="#000000" d="M 93.117188 110.152344 L 86.15625 105.109375 L 86.15625 99.277344 C 96.078125 96.375 103.832031 88.375 106.445312 78.304688 C 112.585938 78.0625 117.527344 72.398438 117.527344 65.421875 C 117.527344 59.332031 113.761719 54.25 108.71875 52.886719 C 119.222656 40.160156 117.492188 27.835938 112.097656 20.332031 C 108.445312 15.246094 103.378906 12.925781 100.441406 11.949219 L 104.183594 7.996094 C 104.601562 7.546875 104.683594 6.878906 104.371094 6.347656 C 104.066406 5.816406 103.4375 5.554688 102.847656 5.707031 L 94.464844 7.8125 L 94.464844 1.683594 C 94.464844 1.238281 94.253906 0.824219 93.894531 0.5625 C 93.535156 0.300781 93.074219 0.230469 92.65625 0.371094 C 89.800781 1.316406 88.351562 3.078125 87.632812 4.429688 C 83.71875 2.210938 78.570312 1 72.914062 1 C 61.238281 1 45.011719 6.625 37.6875 22.472656 C 30.359375 38.347656 37.296875 48.835938 41.074219 52.972656 C 36.160156 54.4375 32.511719 59.4375 32.511719 65.421875 C 32.511719 72.398438 37.453125 78.0625 43.59375 78.304688 C 46.210938 88.375 53.960938 96.375 63.882812 99.277344 L 63.882812 105.109375 L 56.921875 110.152344 C 53.515625 110.671875 29.238281 115.511719 29.238281 148.042969 C 29.238281 148.804688 29.855469 149.421875 30.617188 149.421875 C 31.378906 149.421875 31.996094 148.804688 31.996094 148.042969 C 31.996094 118.988281 51.921875 113.804688 56.628906 112.988281 L 60.972656 122.496094 C 61.148438 122.882812 61.496094 123.167969 61.914062 123.265625 C 62.015625 123.289062 62.121094 123.300781 62.226562 123.300781 C 62.539062 123.300781 62.847656 123.195312 63.09375 122.992188 L 67.453125 119.433594 L 68.992188 124.816406 L 66.832031 147.914062 C 66.761719 148.671875 67.320312 149.34375 68.074219 149.417969 C 68.808594 149.496094 69.503906 148.929688 69.574219 148.171875 L 71.644531 126.070312 L 78.398438 126.070312 L 80.464844 148.171875 C 80.53125 148.886719 81.132812 149.421875 81.835938 149.421875 C 81.878906 149.421875 81.921875 149.421875 81.964844 149.417969 C 82.722656 149.34375 83.28125 148.671875 83.210938 147.914062 L 81.050781 124.816406 L 82.585938 119.433594 L 86.945312 122.992188 C 87.195312 123.195312 87.5 123.300781 87.816406 123.300781 C 87.917969 123.300781 88.023438 123.289062 88.125 123.265625 C 88.542969 123.167969 88.890625 122.882812 89.070312 122.496094 L 93.414062 112.988281 C 98.117188 113.804688 118.046875 118.984375 118.046875 148.042969 C 118.046875 148.804688 118.664062 149.421875 119.425781 149.421875 C 120.183594 149.421875 120.800781 148.804688 120.800781 148.042969 C 120.800781 115.511719 96.519531 110.671875 93.117188 110.152344 Z M 114.773438 65.421875 C 114.773438 70.632812 111.375 74.894531 107.03125 75.472656 C 107.269531 73.960938 107.429688 72.429688 107.429688 70.851562 L 107.429688 55.421875 C 111.582031 56.195312 114.773438 60.371094 114.773438 65.421875 Z M 40.1875 23.628906 C 46.960938 8.960938 62.050781 3.757812 72.910156 3.757812 C 78.746094 3.757812 83.941406 5.132812 87.535156 7.617188 C 87.925781 7.886719 88.421875 7.9375 88.855469 7.753906 C 89.289062 7.570312 89.601562 7.175781 89.675781 6.707031 C 89.679688 6.6875 89.960938 5.105469 91.707031 3.886719 L 91.707031 9.578125 C 91.707031 10.003906 91.902344 10.40625 92.234375 10.667969 C 92.570312 10.925781 93.003906 11.019531 93.417969 10.917969 L 98.925781 9.539062 L 96.851562 11.726562 C 96.503906 12.097656 96.386719 12.628906 96.546875 13.109375 C 96.707031 13.59375 97.113281 13.949219 97.613281 14.035156 C 97.6875 14.050781 105.210938 15.472656 109.859375 21.941406 C 114.78125 28.796875 116.207031 40.265625 105.734375 52.164062 C 102.605469 50.449219 92.21875 43.8125 92.21875 31.261719 C 92.21875 30.597656 91.746094 30.027344 91.097656 29.90625 C 90.4375 29.78125 89.800781 30.140625 89.558594 30.757812 C 89.472656 30.976562 80.703125 52.304688 44.480469 52.496094 C 42.460938 50.738281 32.292969 40.722656 40.1875 23.628906 Z M 35.265625 65.421875 C 35.265625 60.371094 38.453125 56.195312 42.609375 55.421875 L 42.609375 70.851562 C 42.609375 72.425781 42.769531 73.960938 43.003906 75.472656 C 38.660156 74.894531 35.265625 70.632812 35.265625 65.421875 Z M 45.363281 70.851562 L 45.363281 55.222656 C 73.265625 54.816406 85.390625 42.445312 89.875 35.820312 C 92 47.320312 101.753906 53.210938 104.671875 54.734375 L 104.671875 70.851562 C 104.671875 85.667969 92.664062 97.71875 77.90625 97.71875 L 72.128906 97.71875 C 57.371094 97.71875 45.363281 85.667969 45.363281 70.851562 Z M 72.128906 100.480469 L 77.90625 100.480469 C 79.785156 100.480469 81.617188 100.285156 83.398438 99.949219 L 83.398438 105.019531 L 75.019531 109.878906 L 66.636719 105.019531 L 66.636719 99.945312 C 68.421875 100.285156 70.25 100.480469 72.128906 100.480469 Z M 62.734375 119.722656 L 59.175781 111.929688 L 65.34375 107.457031 L 72.601562 111.667969 Z M 78.613281 123.308594 L 71.425781 123.308594 L 69.78125 117.535156 L 75.019531 113.253906 L 80.261719 117.535156 Z M 87.300781 119.722656 L 77.4375 111.667969 L 84.695312 107.457031 L 90.863281 111.929688 Z M 87.300781 119.722656 " fill-opacity="1" fill-rule="nonzero"/></g><path fill="#ffffff" d="M 103.550781 70.390625 C 100.757812 74.488281 95.484375 75.246094 91.675781 74.125 C 91.171875 73.976562 86.078125 72.390625 84.355469 67.179688 C 83.074219 63.304688 84.503906 59.980469 84.871094 59.1875 C 85.832031 59.117188 87.167969 59.027344 88.761719 58.964844 C 90.511719 58.894531 93.5625 58.78125 97.5 58.964844 C 99.167969 59.042969 101.328125 59.1875 103.847656 59.488281 C 105.78125 63.019531 105.691406 67.25 103.550781 70.390625 " fill-opacity="1" fill-rule="nonzero"/><path fill="#ffffff" d="M 49.277344 58.8125 C 48.964844 58.863281 48.6875 59.050781 48.53125 59.324219 C 48.011719 60.226562 47.21875 61.972656 47.304688 64.265625 C 47.382812 66.328125 48.222656 68.0625 48.851562 69.078125 C 49.15625 69.574219 49.640625 69.9375 50.203125 70.089844 C 53.238281 70.925781 53.601562 70.996094 57.535156 71.0625 C 57.535156 71.0625 62.613281 71.0625 66.199219 70.164062 C 66.535156 70.082031 66.835938 69.878906 67.039062 69.597656 C 68.433594 67.664062 68.824219 66.015625 68.886719 64.789062 C 69.027344 62.1875 67.84375 58.890625 67.84375 58.890625 C 67.796875 58.75 67.675781 58.652344 67.535156 58.632812 C 64.910156 58.28125 61.875 58.039062 58.507812 58.066406 C 55.054688 58.09375 51.953125 58.402344 49.277344 58.8125 " fill-opacity="1" fill-rule="nonzero"/><path fill="#261f35" d="M 88.761719 58.964844 C 88.605469 58.96875 88.449219 58.976562 88.296875 58.984375 C 87.503906 60.199219 87.222656 61.449219 87.101562 61.980469 C 86.921875 62.765625 86.398438 65.261719 87.796875 67.78125 C 89.035156 70.019531 91.519531 71.789062 94.351562 71.8125 C 98.417969 71.839844 101.972656 68.261719 102.140625 64.300781 C 102.234375 62.027344 101.1875 60.253906 100.25 59.132812 C 99.226562 59.054688 98.308594 59 97.5 58.964844 C 93.5625 58.78125 90.511719 58.894531 88.761719 58.964844 " fill-opacity="1" fill-rule="nonzero"/><path fill="#cbcecc" d="M 49.992188 68.226562 C 47.703125 66.265625 48.515625 59.960938 48.5 59.378906 C 47.980469 60.296875 47.21875 62.019531 47.304688 64.265625 C 47.382812 66.328125 48.222656 68.0625 48.851562 69.078125 C 49.15625 69.574219 49.640625 69.9375 50.203125 70.089844 C 52.292969 70.664062 53.117188 70.878906 54.710938 70.976562 C 54.039062 70.625 53.425781 70.175781 52.886719 69.664062 C 51.609375 69.425781 50.875 68.980469 49.992188 68.226562 " fill-opacity="1" fill-rule="nonzero"/><path fill="#cbcecc" d="M 68.277344 60.3125 L 67.648438 59.238281 C 67.929688 59.984375 68.183594 61.515625 67.617188 64.492188 C 67.03125 67.574219 65.46875 68.882812 63.449219 69.441406 C 62.894531 70.003906 62.261719 70.488281 61.570312 70.871094 C 63.070312 70.742188 64.753906 70.527344 66.199219 70.164062 C 66.535156 70.082031 66.835938 69.878906 67.039062 69.597656 C 68.433594 67.664062 68.824219 66.015625 68.886719 64.789062 C 68.96875 63.269531 68.597656 61.511719 68.277344 60.3125 " fill-opacity="1" fill-rule="nonzero"/><path fill="#cbcecc" d="M 95.027344 73.082031 C 86.542969 73.527344 83.875 63.316406 83.855469 63.242188 C 83.78125 64.414062 83.886719 65.761719 84.355469 67.179688 C 86.078125 72.390625 91.171875 73.976562 91.675781 74.125 C 95.488281 75.246094 100.757812 74.488281 103.550781 70.390625 C 105.597656 67.390625 105.769531 63.386719 104.089844 59.953125 C 104.933594 63.632812 103.535156 72.632812 95.027344 73.082031 " fill-opacity="1" fill-rule="nonzero"/><path fill="#261f35" d="M 62.964844 58.1875 C 61.554688 58.101562 60.066406 58.054688 58.507812 58.066406 C 56.300781 58.085938 54.238281 58.21875 52.339844 58.417969 C 51.226562 59.792969 50.871094 61.363281 50.730469 61.980469 C 50.554688 62.765625 50.03125 65.261719 51.425781 67.78125 C 51.804688 68.464844 52.300781 69.105469 52.886719 69.664062 C 53.425781 70.175781 54.039062 70.625 54.710938 70.976562 C 54.710938 70.976562 56.480469 71.042969 56.496094 71.042969 C 56.617188 71.046875 57.71875 71.0625 57.71875 71.0625 C 57.738281 71.0625 58.226562 71.054688 58.226562 71.054688 C 58.808594 71.039062 59.707031 71.007812 60.757812 70.933594 L 61.570312 70.871094 C 62.261719 70.488281 62.894531 70.003906 63.449219 69.441406 C 64.804688 68.066406 65.6875 66.226562 65.769531 64.300781 C 65.902344 61.207031 63.917969 59.042969 62.964844 58.1875 " fill-opacity="1" fill-rule="nonzero"/><path fill="#1a1524" d="M 57.71875 71.0625 C 57.71875 71.0625 56.617188 71.046875 56.496094 71.042969 C 56.480469 71.042969 54.710938 70.976562 54.710938 70.976562 C 54.039062 70.625 53.425781 70.175781 52.886719 69.664062 C 53.703125 69.8125 54.738281 69.878906 56.179688 69.878906 C 56.488281 69.878906 56.816406 69.875 57.164062 69.867188 C 59.375 69.832031 61.601562 69.949219 63.449219 69.441406 C 62.894531 70.003906 62.261719 70.488281 61.570312 70.871094 L 60.757812 70.933594 C 59.707031 71.007812 58.808594 71.039062 58.226562 71.054688 C 58.226562 71.054688 57.738281 71.0625 57.71875 71.0625 " fill-opacity="1" fill-rule="nonzero"/><g clip-path="url(#7a8d660931)"><path fill="#261f35" d="M 85.1875 59.640625 C 84.632812 60.941406 83.742188 63.800781 84.808594 67.03125 C 86.4375 71.960938 91.265625 73.507812 91.808594 73.667969 C 95.390625 74.722656 100.46875 74.0625 103.15625 70.121094 C 105.125 67.234375 105.269531 63.257812 103.542969 59.929688 C 101.527344 59.699219 99.488281 59.535156 97.476562 59.441406 C 93.457031 59.253906 90.300781 59.378906 88.78125 59.441406 C 87.585938 59.488281 86.378906 59.554688 85.1875 59.640625 Z M 94.992188 75.066406 C 93.777344 75.066406 92.597656 74.894531 91.539062 74.582031 C 90.945312 74.410156 85.683594 72.722656 83.902344 67.328125 C 82.652344 63.546875 83.859375 60.234375 84.4375 58.988281 C 84.507812 58.832031 84.660156 58.726562 84.832031 58.710938 C 86.128906 58.613281 87.441406 58.539062 88.742188 58.488281 C 90.273438 58.425781 93.460938 58.296875 97.523438 58.488281 C 99.636719 58.585938 101.78125 58.761719 103.902344 59.011719 C 104.054688 59.03125 104.191406 59.121094 104.265625 59.257812 C 105.257812 61.070312 105.753906 63.089844 105.703125 65.097656 C 105.652344 67.125 105.042969 69.046875 103.941406 70.660156 C 101.789062 73.820312 98.257812 75.066406 94.992188 75.066406 " fill-opacity="1" fill-rule="nonzero"/></g><g clip-path="url(#e36df0d440)"><path fill="#261f35" d="M 49.351562 59.285156 C 49.179688 59.3125 49.03125 59.414062 48.945312 59.5625 C 48.371094 60.5625 47.703125 62.183594 47.78125 64.25 C 47.859375 66.285156 48.738281 67.992188 49.253906 68.828125 C 49.5 69.222656 49.882812 69.507812 50.332031 69.632812 C 53.324219 70.453125 53.644531 70.519531 57.539062 70.585938 C 57.703125 70.585938 62.640625 70.566406 66.082031 69.703125 C 66.3125 69.644531 66.515625 69.507812 66.652344 69.316406 C 67.738281 67.8125 68.332031 66.28125 68.410156 64.765625 C 68.535156 62.453125 67.550781 59.507812 67.410156 59.097656 C 64.46875 58.707031 61.476562 58.519531 58.511719 58.542969 C 55.453125 58.570312 52.371094 58.816406 49.351562 59.285156 Z M 57.535156 71.539062 C 53.53125 71.46875 53.132812 71.390625 50.078125 70.550781 C 49.398438 70.363281 48.816406 69.929688 48.445312 69.328125 C 47.753906 68.210938 46.910156 66.425781 46.828125 64.285156 C 46.742188 61.996094 47.480469 60.195312 48.117188 59.085938 C 48.347656 58.683594 48.746094 58.414062 49.207031 58.34375 C 52.273438 57.867188 55.402344 57.617188 58.503906 57.589844 C 61.535156 57.566406 64.59375 57.757812 67.597656 58.160156 C 67.917969 58.203125 68.1875 58.425781 68.292969 58.730469 C 68.359375 58.921875 69.503906 62.171875 69.363281 64.816406 C 69.273438 66.515625 68.621094 68.21875 67.425781 69.875 C 67.15625 70.25 66.761719 70.515625 66.3125 70.628906 C 62.714844 71.53125 57.746094 71.539062 57.535156 71.539062 " fill-opacity="1" fill-rule="nonzero"/></g><path fill="#48405b" d="M 53.453125 67.78125 C 53.714844 68.460938 54.554688 68.691406 55.28125 68.785156 C 56.753906 68.980469 58.25 69.003906 59.730469 68.859375 C 60.257812 68.808594 60.800781 68.730469 61.242188 68.441406 C 61.6875 68.148438 61.996094 67.59375 61.839844 67.085938 C 61.730469 66.734375 61.421875 66.476562 61.082031 66.339844 C 60.738281 66.199219 60.367188 66.171875 60 66.148438 C 58.507812 66.058594 57.015625 66.074219 55.527344 66.191406 C 54.640625 66.261719 52.917969 66.410156 53.453125 67.78125 " fill-opacity="1" fill-rule="nonzero"/><path fill="#ffffff" d="M 52.894531 65.851562 C 52.695312 65.171875 52.648438 64.457031 52.613281 63.75 C 52.574219 63.074219 52.546875 62.390625 52.707031 61.734375 C 52.867188 61.082031 53.242188 60.449219 53.839844 60.132812 C 54.433594 59.816406 55.261719 59.902344 55.675781 60.4375 C 56.082031 60.957031 55.996094 61.707031 55.777344 62.328125 C 55.554688 62.949219 55.214844 63.539062 55.152344 64.195312 C 55.113281 64.667969 55.21875 65.136719 55.277344 65.605469 C 55.339844 66.074219 55.347656 66.574219 55.128906 66.992188 C 54.308594 68.550781 53.152344 66.730469 52.894531 65.851562 " fill-opacity="1" fill-rule="nonzero"/><path fill="#ffffff" d="M 58.523438 61.792969 C 58.480469 62.242188 58.753906 62.679688 59.128906 62.925781 C 59.503906 63.171875 59.96875 63.246094 60.417969 63.238281 C 60.675781 63.234375 60.945312 63.195312 61.144531 63.035156 C 61.320312 62.898438 61.417969 62.683594 61.460938 62.464844 C 61.550781 61.984375 61.367188 61.464844 60.992188 61.148438 C 60.289062 60.550781 58.625 60.632812 58.523438 61.792969 " fill-opacity="1" fill-rule="nonzero"/><path fill="#ffffff" d="M 60.09375 64.691406 C 60.746094 65.058594 61.171875 65.796875 61.160156 66.542969 C 61.15625 66.90625 61.050781 67.269531 60.832031 67.554688 C 60.519531 67.960938 60 68.164062 59.492188 68.226562 C 58.921875 68.296875 58.296875 68.1875 57.882812 67.792969 C 57.492188 67.421875 57.34375 66.847656 57.378906 66.3125 C 57.414062 65.765625 57.574219 64.957031 58.082031 64.660156 C 58.671875 64.316406 59.515625 64.363281 60.09375 64.691406 " fill-opacity="1" fill-rule="nonzero"/><path fill="#48405b" d="M 89.972656 67.78125 C 90.234375 68.460938 91.074219 68.691406 91.796875 68.785156 C 93.273438 68.980469 94.769531 69.003906 96.25 68.859375 C 96.777344 68.808594 97.320312 68.730469 97.761719 68.441406 C 98.203125 68.148438 98.515625 67.59375 98.359375 67.085938 C 98.25 66.734375 97.941406 66.476562 97.597656 66.339844 C 97.257812 66.199219 96.886719 66.171875 96.519531 66.148438 C 95.027344 66.058594 93.535156 66.074219 92.046875 66.191406 C 91.160156 66.261719 89.4375 66.410156 89.972656 67.78125 " fill-opacity="1" fill-rule="nonzero"/><path fill="#ffffff" d="M 89.414062 65.851562 C 89.214844 65.171875 89.167969 64.457031 89.128906 63.75 C 89.09375 63.074219 89.066406 62.390625 89.226562 61.734375 C 89.382812 61.082031 89.761719 60.449219 90.355469 60.132812 C 90.953125 59.816406 91.78125 59.902344 92.195312 60.4375 C 92.601562 60.957031 92.515625 61.707031 92.292969 62.328125 C 92.074219 62.949219 91.730469 63.539062 91.671875 64.195312 C 91.632812 64.667969 91.738281 65.136719 91.796875 65.605469 C 91.859375 66.074219 91.867188 66.574219 91.648438 66.992188 C 90.828125 68.550781 89.671875 66.730469 89.414062 65.851562 " fill-opacity="1" fill-rule="nonzero"/><path fill="#ffffff" d="M 95.042969 61.792969 C 95 62.242188 95.273438 62.679688 95.648438 62.925781 C 96.023438 63.171875 96.488281 63.246094 96.9375 63.238281 C 97.191406 63.234375 97.464844 63.195312 97.664062 63.035156 C 97.839844 62.898438 97.9375 62.683594 97.980469 62.464844 C 98.070312 61.984375 97.886719 61.464844 97.511719 61.148438 C 96.808594 60.550781 95.144531 60.632812 95.042969 61.792969 " fill-opacity="1" fill-rule="nonzero"/><path fill="#ffffff" d="M 96.613281 64.691406 C 97.265625 65.058594 97.691406 65.796875 97.679688 66.542969 C 97.675781 66.90625 97.570312 67.269531 97.351562 67.554688 C 97.035156 67.960938 96.519531 68.164062 96.011719 68.226562 C 95.441406 68.296875 94.816406 68.1875 94.402344 67.792969 C 94.011719 67.421875 93.859375 66.847656 93.898438 66.3125 C 93.933594 65.765625 94.089844 64.957031 94.597656 64.660156 C 95.191406 64.316406 96.035156 64.363281 96.613281 64.691406 " fill-opacity="1" fill-rule="nonzero"/><g clip-path="url(#71761471a9)"><path fill="#261f35" d="M 104.769531 51.746094 C 98.828125 54.691406 91.691406 55.140625 85.425781 52.960938 C 84.652344 52.691406 83.851562 52.351562 83.367188 51.691406 C 82.886719 51.03125 82.878906 49.960938 83.558594 49.503906 C 84.308594 49.003906 85.296875 49.503906 86.085938 49.9375 C 90.949219 52.609375 97.113281 52.757812 102.097656 50.320312 C 102.84375 49.953125 103.582031 49.53125 104.398438 49.394531 C 106.78125 48.996094 106.453125 50.910156 104.769531 51.746094 " fill-opacity="1" fill-rule="nonzero"/></g><g clip-path="url(#d50a8888dc)"><path fill="#261f35" d="M 48.292969 51.746094 C 54.238281 54.691406 61.371094 55.140625 67.636719 52.960938 C 68.410156 52.691406 69.210938 52.351562 69.695312 51.691406 C 70.179688 51.03125 70.183594 49.960938 69.503906 49.503906 C 68.753906 49.003906 67.769531 49.503906 66.976562 49.9375 C 62.117188 52.609375 55.949219 52.757812 50.964844 50.320312 C 50.21875 49.953125 49.484375 49.53125 48.664062 49.394531 C 46.28125 48.996094 46.609375 50.910156 48.292969 51.746094 " fill-opacity="1" fill-rule="nonzero"/></g><g clip-path="url(#9f46f5a1b7)"><path fill="#000000" d="M 79.367188 73.878906 C 78.914062 73.515625 78.644531 73.042969 78.558594 72.457031 C 77.769531 67.230469 77.679688 62.425781 77.675781 62.378906 C 77.664062 62.097656 77.265625 62.089844 77.257812 62.386719 C 77.257812 62.433594 77.347656 67.265625 78.144531 72.523438 C 78.25 73.21875 78.570312 73.785156 79.105469 74.21875 C 79.863281 74.832031 80.765625 75.921875 80.765625 77.640625 C 80.796875 79.386719 79.269531 79.816406 78.011719 79.765625 C 78.402344 79.484375 79.003906 79.121094 79.53125 79.105469 C 79.804688 79.089844 79.800781 78.675781 79.519531 78.671875 C 78.503906 78.703125 77.363281 79.730469 77.3125 79.773438 C 75.871094 81.144531 73.75 81.128906 72.316406 79.773438 C 72.269531 79.730469 71.128906 78.703125 70.113281 78.671875 C 69.839844 78.671875 69.820312 79.085938 70.101562 79.105469 C 70.625 79.121094 71.226562 79.484375 71.621094 79.765625 C 71.035156 79.785156 70.085938 79.714844 69.472656 79.175781 C 69.070312 78.824219 68.867188 78.308594 68.867188 77.640625 C 68.867188 75.921875 69.769531 74.832031 70.523438 74.21875 C 71.058594 73.789062 71.378906 73.230469 71.484375 72.539062 C 72.28125 67.277344 72.375 62.433594 72.375 62.386719 C 72.375 62.242188 72.308594 62.167969 72.167969 62.164062 C 72.027344 62.164062 71.957031 62.234375 71.953125 62.378906 C 71.953125 62.425781 71.863281 67.238281 71.070312 72.472656 C 70.980469 73.050781 70.714844 73.519531 70.265625 73.878906 C 69.585938 74.429688 68.445312 75.648438 68.445312 77.640625 C 68.445312 78.441406 68.699219 79.066406 69.199219 79.507812 C 70.152344 80.34375 71.695312 80.21875 72.109375 80.164062 C 73.691406 81.589844 75.953125 81.582031 77.523438 80.164062 C 77.933594 80.21875 79.476562 80.34375 80.433594 79.507812 C 80.933594 79.066406 81.183594 78.441406 81.183594 77.640625 C 81.183594 75.648438 80.046875 74.429688 79.367188 73.878906 Z M 79.367188 73.878906 " fill-opacity="1" fill-rule="nonzero"/></g><path fill="#000000" d="M 72.351562 77.644531 C 72.515625 77.878906 72.847656 77.644531 72.699219 77.402344 C 71.800781 76.015625 72.964844 74.015625 72.980469 73.984375 C 73.054688 73.863281 73.03125 73.761719 72.914062 73.6875 C 72.792969 73.613281 72.695312 73.636719 72.625 73.757812 C 72.570312 73.851562 71.296875 76.023438 72.351562 77.644531 Z M 72.351562 77.644531 " fill-opacity="1" fill-rule="nonzero"/><path fill="#231f20" d="M 62.273438 85.667969 C 62.273438 85.667969 62.679688 85.882812 63.40625 86.195312 C 63.769531 86.351562 64.21875 86.53125 64.730469 86.722656 C 65.246094 86.914062 65.832031 87.109375 66.476562 87.304688 C 67.117188 87.503906 67.824219 87.683594 68.570312 87.859375 C 69.320312 88.027344 70.109375 88.183594 70.933594 88.304688 C 71.347656 88.371094 71.769531 88.417969 72.191406 88.472656 C 72.40625 88.492188 72.621094 88.511719 72.835938 88.53125 C 73.050781 88.554688 73.269531 88.570312 73.484375 88.582031 C 73.703125 88.59375 73.921875 88.609375 74.144531 88.621094 C 74.363281 88.628906 74.582031 88.632812 74.804688 88.640625 C 75.246094 88.660156 75.6875 88.652344 76.132812 88.644531 C 76.574219 88.652344 77.019531 88.613281 77.460938 88.597656 C 77.902344 88.570312 78.339844 88.527344 78.777344 88.496094 C 79.210938 88.445312 79.640625 88.394531 80.066406 88.34375 C 80.492188 88.277344 80.914062 88.214844 81.324219 88.148438 C 81.734375 88.070312 82.140625 87.992188 82.535156 87.917969 C 82.929688 87.839844 83.3125 87.738281 83.6875 87.65625 C 84.066406 87.578125 84.425781 87.472656 84.777344 87.378906 C 85.125 87.285156 85.46875 87.207031 85.789062 87.101562 C 86.433594 86.898438 87.035156 86.738281 87.554688 86.550781 C 88.074219 86.367188 88.542969 86.234375 88.910156 86.085938 C 89.28125 85.945312 89.582031 85.847656 89.785156 85.773438 C 89.988281 85.703125 90.097656 85.667969 90.097656 85.667969 C 90.097656 85.667969 90 85.730469 89.820312 85.847656 C 89.640625 85.960938 89.378906 86.132812 89.035156 86.339844 C 88.695312 86.554688 88.265625 86.785156 87.773438 87.046875 C 87.28125 87.320312 86.707031 87.578125 86.078125 87.867188 C 85.765625 88.015625 85.425781 88.132812 85.078125 88.277344 C 84.730469 88.414062 84.371094 88.554688 83.992188 88.675781 C 83.613281 88.796875 83.226562 88.933594 82.824219 89.046875 C 82.421875 89.15625 82.007812 89.265625 81.582031 89.375 C 81.15625 89.464844 80.722656 89.554688 80.28125 89.648438 C 79.839844 89.71875 79.390625 89.792969 78.933594 89.855469 C 78.476562 89.902344 78.019531 89.964844 77.554688 89.992188 C 77.089844 90.011719 76.625 90.058594 76.15625 90.054688 C 75.6875 90.054688 75.222656 90.0625 74.757812 90.035156 C 74.523438 90.027344 74.292969 90.019531 74.0625 90.003906 C 73.828125 89.984375 73.601562 89.960938 73.371094 89.941406 C 72.457031 89.859375 71.558594 89.714844 70.707031 89.53125 C 69.847656 89.355469 69.035156 89.121094 68.277344 88.878906 C 67.519531 88.621094 66.816406 88.355469 66.183594 88.0625 C 65.550781 87.78125 64.984375 87.488281 64.5 87.207031 C 64.007812 86.9375 63.597656 86.664062 63.269531 86.4375 C 62.933594 86.214844 62.691406 86.011719 62.523438 85.882812 C 62.355469 85.746094 62.273438 85.667969 62.273438 85.667969 " fill-opacity="1" fill-rule="nonzero"/><g clip-path="url(#25b0eb6e67)"><path fill="#231f20" d="M 67.835938 89.859375 C 67.835938 89.859375 67.894531 89.90625 68.007812 89.988281 C 68.117188 90.074219 68.285156 90.1875 68.492188 90.332031 C 68.699219 90.480469 68.964844 90.640625 69.261719 90.828125 C 69.5625 91.007812 69.90625 91.203125 70.28125 91.398438 C 70.664062 91.589844 71.074219 91.792969 71.523438 91.96875 C 71.742188 92.0625 71.976562 92.140625 72.210938 92.226562 C 72.453125 92.296875 72.691406 92.390625 72.941406 92.449219 C 73.4375 92.59375 73.960938 92.683594 74.492188 92.761719 C 74.761719 92.785156 75.027344 92.820312 75.296875 92.828125 C 75.433594 92.832031 75.570312 92.84375 75.703125 92.847656 L 76.113281 92.839844 L 76.316406 92.835938 L 76.925781 92.789062 C 77.195312 92.757812 77.464844 92.722656 77.730469 92.679688 C 77.863281 92.65625 77.996094 92.625 78.125 92.601562 C 78.257812 92.574219 78.390625 92.554688 78.519531 92.515625 C 78.773438 92.445312 79.03125 92.386719 79.28125 92.308594 C 79.527344 92.230469 79.773438 92.148438 80.011719 92.070312 C 80.25 91.980469 80.480469 91.890625 80.707031 91.804688 C 80.933594 91.714844 81.144531 91.609375 81.355469 91.519531 C 81.460938 91.472656 81.566406 91.429688 81.667969 91.382812 C 81.765625 91.332031 81.863281 91.285156 81.960938 91.234375 C 82.15625 91.140625 82.339844 91.050781 82.515625 90.964844 C 82.691406 90.871094 82.855469 90.78125 83.011719 90.699219 C 83.324219 90.53125 83.601562 90.390625 83.820312 90.253906 C 84.039062 90.125 84.222656 90.03125 84.34375 89.960938 C 84.464844 89.894531 84.53125 89.859375 84.53125 89.859375 C 84.53125 89.859375 84.484375 89.917969 84.394531 90.023438 C 84.304688 90.125 84.175781 90.285156 83.996094 90.472656 C 83.910156 90.566406 83.816406 90.679688 83.703125 90.789062 C 83.59375 90.898438 83.464844 91.011719 83.335938 91.136719 C 83.199219 91.257812 83.058594 91.390625 82.90625 91.527344 C 82.746094 91.65625 82.578125 91.789062 82.402344 91.929688 C 82.226562 92.070312 82.035156 92.207031 81.832031 92.339844 C 81.625 92.476562 81.417969 92.617188 81.191406 92.75 C 80.964844 92.875 80.726562 93.003906 80.484375 93.136719 C 80.238281 93.261719 79.976562 93.367188 79.710938 93.484375 C 79.449219 93.601562 79.164062 93.683594 78.882812 93.785156 C 78.597656 93.882812 78.300781 93.945312 78.003906 94.023438 C 77.703125 94.082031 77.394531 94.140625 77.085938 94.179688 L 76.621094 94.222656 L 76.382812 94.242188 L 76.148438 94.246094 L 75.675781 94.25 C 75.519531 94.246094 75.363281 94.230469 75.207031 94.222656 C 74.894531 94.214844 74.585938 94.152344 74.28125 94.109375 C 73.675781 93.996094 73.085938 93.847656 72.542969 93.632812 C 72.269531 93.535156 72.011719 93.410156 71.757812 93.296875 C 71.507812 93.167969 71.261719 93.054688 71.039062 92.914062 C 70.582031 92.648438 70.179688 92.359375 69.824219 92.078125 C 69.46875 91.792969 69.171875 91.503906 68.917969 91.246094 C 68.660156 90.984375 68.457031 90.738281 68.296875 90.535156 C 67.976562 90.125 67.835938 89.859375 67.835938 89.859375 " fill-opacity="1" fill-rule="nonzero"/></g><g clip-path="url(#1fc0cf52ba)"><path fill="#231f20" d="M 61.160156 86.265625 C 61.160156 86.265625 61.328125 86.203125 61.523438 86.089844 C 61.570312 86.058594 61.621094 86.027344 61.667969 85.988281 C 61.71875 85.953125 61.769531 85.914062 61.816406 85.871094 C 61.867188 85.828125 61.910156 85.777344 61.957031 85.730469 C 62 85.675781 62.050781 85.632812 62.089844 85.574219 C 62.132812 85.519531 62.175781 85.464844 62.210938 85.402344 C 62.25 85.34375 62.292969 85.289062 62.328125 85.226562 C 62.359375 85.167969 62.402344 85.113281 62.433594 85.054688 C 62.460938 84.996094 62.496094 84.941406 62.527344 84.890625 C 62.589844 84.789062 62.636719 84.695312 62.679688 84.636719 C 62.71875 84.574219 62.75 84.535156 62.75 84.535156 C 62.75 84.535156 62.761719 84.578125 62.773438 84.652344 C 62.78125 84.726562 62.800781 84.835938 62.792969 84.964844 C 62.789062 85.027344 62.78125 85.097656 62.769531 85.171875 C 62.761719 85.246094 62.734375 85.320312 62.710938 85.398438 C 62.691406 85.476562 62.652344 85.554688 62.613281 85.632812 C 62.578125 85.714844 62.519531 85.789062 62.464844 85.859375 C 62.414062 85.9375 62.34375 85.996094 62.277344 86.0625 C 62.207031 86.117188 62.132812 86.171875 62.054688 86.214844 C 61.976562 86.253906 61.898438 86.289062 61.820312 86.308594 C 61.742188 86.332031 61.667969 86.339844 61.597656 86.347656 C 61.460938 86.355469 61.347656 86.332031 61.273438 86.3125 C 61.195312 86.289062 61.160156 86.265625 61.160156 86.265625 " fill-opacity="1" fill-rule="nonzero"/></g><g clip-path="url(#56c7b8ca71)"><path fill="#231f20" d="M 91.160156 86.265625 C 91.160156 86.265625 91.121094 86.289062 91.046875 86.3125 C 90.972656 86.332031 90.855469 86.355469 90.71875 86.347656 C 90.652344 86.339844 90.574219 86.332031 90.5 86.308594 C 90.421875 86.289062 90.339844 86.253906 90.265625 86.214844 C 90.183594 86.171875 90.113281 86.117188 90.039062 86.0625 C 89.976562 85.996094 89.902344 85.9375 89.851562 85.859375 C 89.796875 85.789062 89.742188 85.714844 89.707031 85.632812 C 89.664062 85.554688 89.628906 85.476562 89.605469 85.398438 C 89.582031 85.320312 89.558594 85.246094 89.546875 85.171875 C 89.535156 85.097656 89.53125 85.027344 89.527344 84.964844 C 89.515625 84.835938 89.535156 84.726562 89.546875 84.652344 C 89.558594 84.578125 89.570312 84.535156 89.570312 84.535156 C 89.570312 84.535156 89.597656 84.574219 89.636719 84.636719 C 89.683594 84.695312 89.726562 84.789062 89.789062 84.890625 C 89.820312 84.941406 89.855469 84.996094 89.886719 85.054688 C 89.917969 85.113281 89.957031 85.167969 89.992188 85.226562 C 90.023438 85.289062 90.066406 85.34375 90.105469 85.402344 C 90.140625 85.464844 90.1875 85.519531 90.230469 85.574219 C 90.265625 85.632812 90.320312 85.675781 90.359375 85.730469 C 90.40625 85.777344 90.453125 85.828125 90.5 85.871094 C 90.550781 85.914062 90.597656 85.953125 90.648438 85.988281 C 90.699219 86.027344 90.746094 86.058594 90.796875 86.089844 C 90.988281 86.203125 91.160156 86.265625 91.160156 86.265625 " fill-opacity="1" fill-rule="nonzero"/></g><path fill="#231f20" d="M 66.167969 85.957031 C 66.597656 86.085938 67.039062 86.175781 67.480469 86.246094 C 67.921875 86.3125 68.367188 86.355469 68.8125 86.375 C 69.707031 86.410156 70.597656 86.347656 71.460938 86.164062 C 71.679688 86.121094 71.890625 86.070312 72.101562 86.007812 C 72.316406 85.949219 72.523438 85.882812 72.730469 85.804688 C 72.933594 85.730469 73.136719 85.648438 73.335938 85.558594 C 73.527344 85.472656 73.738281 85.351562 74.015625 85.296875 C 74.277344 85.242188 74.558594 85.257812 74.816406 85.332031 C 75.074219 85.410156 75.300781 85.539062 75.503906 85.6875 C 75.707031 85.839844 75.882812 86.011719 76.042969 86.195312 C 76.203125 86.382812 76.339844 86.566406 76.46875 86.792969 L 76.472656 86.796875 L 75.84375 86.773438 C 75.988281 86.5625 76.128906 86.386719 76.289062 86.207031 C 76.449219 86.03125 76.621094 85.863281 76.8125 85.710938 C 77.003906 85.5625 77.21875 85.425781 77.457031 85.324219 C 77.695312 85.226562 77.972656 85.167969 78.246094 85.195312 C 78.382812 85.214844 78.519531 85.242188 78.644531 85.296875 L 78.953125 85.421875 C 79.144531 85.492188 79.351562 85.558594 79.566406 85.609375 C 79.984375 85.714844 80.421875 85.785156 80.859375 85.832031 C 81.738281 85.925781 82.632812 85.933594 83.527344 85.902344 C 84.417969 85.867188 85.3125 85.792969 86.199219 85.667969 C 85.324219 85.847656 84.433594 85.980469 83.539062 86.074219 C 82.644531 86.164062 81.742188 86.214844 80.835938 86.179688 C 80.378906 86.160156 79.925781 86.117188 79.46875 86.03125 C 79.242188 85.992188 79.019531 85.9375 78.785156 85.867188 L 78.464844 85.761719 C 78.382812 85.730469 78.292969 85.722656 78.207031 85.714844 C 78.035156 85.710938 77.863281 85.757812 77.695312 85.84375 C 77.527344 85.925781 77.367188 86.042969 77.21875 86.179688 C 77.070312 86.3125 76.929688 86.46875 76.804688 86.628906 C 76.679688 86.789062 76.554688 86.972656 76.460938 87.132812 C 76.367188 87.300781 76.152344 87.359375 75.984375 87.265625 C 75.933594 87.238281 75.894531 87.203125 75.863281 87.160156 L 75.832031 87.113281 C 75.753906 86.949219 75.636719 86.761719 75.519531 86.601562 C 75.398438 86.441406 75.261719 86.289062 75.113281 86.164062 C 74.820312 85.90625 74.46875 85.757812 74.105469 85.804688 C 73.9375 85.824219 73.742188 85.90625 73.523438 85.992188 C 73.304688 86.074219 73.089844 86.148438 72.867188 86.210938 C 72.648438 86.28125 72.421875 86.335938 72.199219 86.382812 C 71.976562 86.433594 71.75 86.472656 71.523438 86.503906 C 71.070312 86.570312 70.613281 86.601562 70.160156 86.609375 C 69.707031 86.617188 69.25 86.59375 68.800781 86.546875 C 68.351562 86.496094 67.902344 86.425781 67.464844 86.328125 C 67.023438 86.230469 66.589844 86.113281 66.167969 85.957031 " fill-opacity="1" fill-rule="nonzero"/></svg>