<svg xmlns="http://www.w3.org/2000/svg" xmlns:xlink="http://www.w3.org/1999/xlink" width="200" zoomAndPan="magnify" viewBox="0 0 150 149.999998" height="200" preserveAspectRatio="xMidYMid meet" version="1.0"><defs><clipPath id="df9c545659"><path d="M 10.117188 5.144531 L 149.976562 5.144531 L 149.976562 104 L 10.117188 104 Z M 10.117188 5.144531 " clip-rule="nonzero"/></clipPath><clipPath id="fc4fa6ff18"><path d="M 1.125 66 L 124.949219 66 L 124.949219 144.96875 L 1.125 144.96875 Z M 1.125 66 " clip-rule="nonzero"/></clipPath><clipPath id="0d040890d0"><path d="M 41 102.441406 L 60 102.441406 L 60 125.789062 L 41 125.789062 Z M 41 102.441406 " clip-rule="nonzero"/></clipPath><clipPath id="f81e75169b"><path d="M 37.160156 107 L 45 107 L 45 118 L 37.160156 118 Z M 37.160156 107 " clip-rule="nonzero"/></clipPath><clipPath id="acaf95d9dd"><path d="M 56 110 L 63.777344 110 L 63.777344 121 L 56 121 Z M 56 110 " clip-rule="nonzero"/></clipPath><clipPath id="9a2763a9a0"><path d="M 69.210938 102.441406 L 86 102.441406 L 86 125.789062 L 69.210938 125.789062 Z M 69.210938 102.441406 " clip-rule="nonzero"/></clipPath><clipPath id="89fd614406"><path d="M 87 102.441406 L 104.230469 102.441406 L 104.230469 125.789062 L 87 125.789062 Z M 87 102.441406 " clip-rule="nonzero"/></clipPath></defs><g clip-path="url(#df9c545659)"><path fill="#ff5757" d="M 80.128906 5.140625 C 41.554688 5.140625 10.28125 36.445312 10.28125 75.054688 C 10.28125 81.394531 11.125 87.535156 12.703125 93.371094 L 50.855469 56.027344 L 62.066406 74.339844 L 102.859375 36.148438 L 143.824219 103.785156 C 147.777344 95.019531 149.976562 85.296875 149.976562 75.054688 C 149.976562 36.445312 118.703125 5.140625 80.128906 5.140625 " fill-opacity="1" fill-rule="nonzero"/></g><g clip-path="url(#fc4fa6ff18)"><path fill="#ff5757" d="M 58.109375 96.117188 L 46.976562 79.308594 L -11.582031 117.144531 L 17.957031 106.949219 C 29.539062 129.523438 53.03125 144.96875 80.128906 144.96875 C 97.085938 144.96875 112.632812 138.917969 124.730469 128.859375 L 96.21875 66.203125 L 58.109375 96.117188 " fill-opacity="1" fill-rule="nonzero"/></g><g clip-path="url(#0d040890d0)"><path fill="#ffffff" d="M 43.390625 102.441406 L 57.082031 102.441406 L 58.007812 103.902344 L 48.007812 122.222656 L 59.238281 122.222656 L 57.394531 125.789062 L 43.390625 125.789062 L 42.773438 124.492188 L 52.851562 106.089844 L 41.46875 106.089844 Z M 43.390625 102.441406 " fill-opacity="1" fill-rule="nonzero"/></g><g clip-path="url(#f81e75169b)"><path fill="#ffffff" d="M 40.546875 107.875 L 44.394531 107.875 L 39.007812 117.761719 L 37.164062 114.199219 Z M 40.546875 107.875 " fill-opacity="1" fill-rule="nonzero"/></g><path fill="#ffffff" d="M 46.242188 107.875 L 50.085938 107.875 L 41.929688 122.789062 L 39.777344 119.222656 Z M 46.242188 107.875 " fill-opacity="1" fill-rule="nonzero"/><path fill="#ffffff" d="M 59.007812 105.441406 L 60.851562 109.007812 L 54.542969 120.355469 L 50.699219 120.355469 Z M 59.007812 105.441406 " fill-opacity="1" fill-rule="nonzero"/><g clip-path="url(#acaf95d9dd)"><path fill="#ffffff" d="M 61.777344 110.632812 L 63.773438 114.199219 L 60.238281 120.355469 L 56.386719 120.355469 Z M 61.777344 110.632812 " fill-opacity="1" fill-rule="nonzero"/></g><g clip-path="url(#9a2763a9a0)"><path fill="#ffffff" d="M 74.222656 110.777344 L 85.890625 110.777344 L 85.890625 125.785156 L 80.890625 125.785156 L 80.890625 115.78125 L 69.222656 115.78125 L 69.222656 102.441406 L 85.890625 102.441406 L 85.890625 107.445312 L 74.222656 107.445312 Z M 74.222656 110.777344 " fill-opacity="1" fill-rule="nonzero"/></g><g clip-path="url(#89fd614406)"><path fill="#ffffff" d="M 99.222656 107.445312 L 87.554688 107.445312 L 87.554688 102.441406 L 104.222656 102.441406 L 104.222656 115.78125 L 92.554688 115.78125 L 92.554688 125.785156 L 87.554688 125.785156 L 87.554688 110.777344 L 99.222656 110.777344 Z M 99.222656 107.445312 " fill-opacity="1" fill-rule="nonzero"/></g></svg>