<svg xmlns="http://www.w3.org/2000/svg" xmlns:xlink="http://www.w3.org/1999/xlink" width="500" zoomAndPan="magnify" viewBox="0 0 375 374.999991" height="500" preserveAspectRatio="xMidYMid meet" version="1.0"><defs><clipPath id="id1"><path d="M 75 75 L 300 75 L 300 300 L 75 300 Z M 75 75 " clip-rule="nonzero"/></clipPath></defs><path fill="#ffdd09" d="M 251.984375 234.535156 L 243.949219 242.570312 C 239.59375 246.925781 231.78125 251.832031 226.085938 252.640625 C 221.132812 253.34375 216.359375 253.394531 211.746094 252.894531 C 200.351562 251.664062 189.980469 247.078125 180.433594 240.734375 C 171.558594 234.859375 163.394531 227.46875 155.777344 219.855469 C 154.027344 218.105469 152.21875 216.226562 150.386719 214.246094 C 134.453125 197.03125 116.867188 171.753906 122.429688 149.234375 C 123.640625 144.363281 125.925781 139.609375 129.554688 135.113281 C 130.539062 133.875 131.628906 132.65625 132.828125 131.453125 L 140.863281 123.421875 C 142.027344 122.257812 143.652344 121.609375 145.285156 121.8125 C 145.933594 121.890625 146.539062 122.082031 146.929688 122.476562 L 162.890625 138.4375 C 168.078125 143.625 168.070312 152.109375 162.882812 157.300781 L 159.753906 160.429688 C 155.007812 165.171875 154.191406 172.628906 157.910156 178.21875 C 168.96875 194.839844 182.515625 208.140625 199.566406 219.007812 C 203.621094 221.589844 209.75 220.855469 213.144531 217.460938 L 218.09375 212.511719 C 219.058594 211.539062 220.136719 210.761719 221.296875 210.148438 C 226.328125 207.503906 232.746094 208.289062 236.964844 212.511719 L 252.921875 228.46875 C 253.316406 228.867188 253.507812 229.464844 253.582031 230.109375 C 253.777344 231.742188 253.140625 233.371094 251.984375 234.535156 Z M 294.75 178.710938 C 290.585938 126.628906 248.371094 84.414062 196.289062 80.25 C 130.039062 74.976562 74.976562 130.039062 80.25 196.289062 C 84.414062 248.371094 126.628906 290.589844 178.710938 294.75 C 244.960938 300.023438 300.023438 244.960938 294.75 178.710938 " fill-opacity="1" fill-rule="nonzero"/><path fill="#100f0d" d="M 239.429688 238.070312 C 235.410156 242.097656 228.714844 245.957031 224.800781 246.511719 C 220.5 247.121094 216.183594 247.195312 211.960938 246.738281 C 202.515625 245.722656 193.171875 242.078125 183.398438 235.59375 C 176.171875 230.804688 168.695312 224.460938 159.871094 215.640625 C 158.191406 213.960938 156.453125 212.15625 154.691406 210.242188 C 142.601562 197.1875 123.101562 172.117188 128.339844 150.921875 C 129.394531 146.671875 131.410156 142.675781 134.386719 139 C 135.226562 137.933594 136.179688 136.875 137.210938 135.847656 L 144.800781 128.164062 L 159.378906 142.746094 C 160.855469 144.214844 161.664062 146.1875 161.664062 148.296875 C 161.660156 150.40625 160.851562 152.382812 159.371094 153.855469 L 156.28125 156.945312 C 149.800781 163.433594 148.753906 173.636719 153.792969 181.214844 C 165.144531 198.277344 179.117188 211.957031 196.503906 223.042969 C 202.59375 226.914062 211.382812 225.933594 216.53125 220.785156 L 221.417969 215.898438 C 221.96875 215.347656 222.605469 214.878906 223.292969 214.511719 C 226.324219 212.917969 230.125 213.492188 232.535156 215.902344 L 247.070312 230.4375 Z M 255.8125 224.144531 L 240.054688 208.386719 C 234.382812 202.71875 225.457031 201.363281 218.332031 205.117188 C 216.6875 205.988281 215.195312 207.085938 213.902344 208.386719 L 209.011719 213.273438 C 207.394531 214.886719 204.09375 215.273438 202.214844 214.078125 C 186.101562 203.808594 173.15625 191.132812 162.640625 175.328125 C 160.394531 171.945312 160.878906 167.382812 163.796875 164.460938 L 166.882812 161.371094 C 170.371094 157.890625 172.292969 153.253906 172.292969 148.300781 C 172.292969 143.351562 170.378906 138.707031 166.894531 135.226562 L 151.128906 119.464844 C 150.296875 118.628906 148.792969 117.578125 146.390625 117.289062 C 143.261719 116.90625 139.960938 118.066406 137.625 120.394531 L 129.695312 128.328125 C 128.378906 129.644531 127.15625 131.015625 126.085938 132.359375 C 122.167969 137.214844 119.449219 142.601562 118.019531 148.371094 C 111.914062 173.105469 130.351562 199.597656 146.882812 217.457031 C 148.738281 219.46875 150.578125 221.371094 152.355469 223.148438 C 161.695312 232.492188 169.695312 239.261719 177.527344 244.449219 C 188.753906 251.894531 199.644531 256.101562 210.816406 257.304688 C 213.007812 257.542969 215.222656 257.664062 217.441406 257.664062 C 220.386719 257.664062 223.351562 257.457031 226.289062 257.035156 C 233.335938 256.039062 242.011719 250.523438 246.949219 245.585938 L 254.882812 237.652344 C 257.207031 235.328125 258.371094 232.046875 257.980469 228.890625 C 257.75 226.957031 257.023438 225.363281 255.8125 224.144531 " fill-opacity="1" fill-rule="nonzero"/><g clip-path="url(#id1)"><path fill="#100f0d" d="M 187.441406 85.765625 C 131.375 85.765625 85.765625 131.375 85.765625 187.441406 C 85.765625 243.507812 131.375 289.117188 187.441406 289.117188 C 243.507812 289.117188 289.117188 243.507812 289.117188 187.441406 C 289.117188 131.375 243.507812 85.765625 187.441406 85.765625 Z M 187.441406 299.917969 C 125.417969 299.917969 74.964844 249.460938 74.964844 187.441406 C 74.964844 125.417969 125.417969 74.964844 187.441406 74.964844 C 249.460938 74.964844 299.917969 125.417969 299.917969 187.441406 C 299.917969 249.460938 249.460938 299.917969 187.441406 299.917969 " fill-opacity="1" fill-rule="nonzero"/></g></svg>