<svg xmlns="http://www.w3.org/2000/svg" xmlns:xlink="http://www.w3.org/1999/xlink" width="1920" zoomAndPan="magnify" viewBox="0 0 1440 809.999993" height="1080" preserveAspectRatio="xMidYMid meet" version="1.0"><defs><clipPath id="id1"><path d="M 401.398438 276 L 837 276 L 837 468 L 401.398438 468 Z M 401.398438 276 " clip-rule="nonzero"/></clipPath><clipPath id="id2"><path d="M 603 52 L 1038.898438 52 L 1038.898438 245 L 603 245 Z M 603 52 " clip-rule="nonzero"/></clipPath></defs><path fill="#fde35a" d="M 686.945312 499.914062 L 744.523438 499.914062 L 744.523438 806.445312 L 686.945312 806.445312 Z M 686.945312 499.914062 " fill-opacity="1" fill-rule="nonzero"/><g clip-path="url(#id1)"><path fill="#fde35a" d="M 491.496094 276.359375 L 401.3125 372.046875 L 491.496094 467.734375 L 836.636719 467.734375 L 836.636719 276.359375 Z M 491.496094 276.359375 " fill-opacity="1" fill-rule="nonzero"/></g><g clip-path="url(#id2)"><path fill="#fde35a" d="M 761.253906 52.804688 C 761.039062 52.804688 760.835938 52.871094 760.621094 52.871094 L 670.84375 52.871094 C 670.632812 52.871094 670.4375 52.804688 670.222656 52.804688 L 603.683594 52.804688 L 603.683594 244.179688 L 948.800781 244.179688 L 1038.953125 148.492188 L 948.800781 52.804688 Z M 761.253906 52.804688 " fill-opacity="1" fill-rule="nonzero"/></g><path fill="#fde35a" d="M 686.945312 4.628906 L 744.523438 4.628906 L 744.523438 20.625 L 686.945312 20.625 Z M 686.945312 4.628906 " fill-opacity="1" fill-rule="nonzero"/></svg>