<svg xmlns="http://www.w3.org/2000/svg" xmlns:xlink="http://www.w3.org/1999/xlink" width="200" zoomAndPan="magnify" viewBox="0 0 150 149.999998" height="200" preserveAspectRatio="xMidYMid meet" version="1.0"><defs><clipPath id="f79501d67f"><path d="M 0 8.09375 L 150 8.09375 L 150 149.503906 L 0 149.503906 Z M 0 8.09375 " clip-rule="nonzero"/></clipPath><clipPath id="1df470fc94"><path d="M 0 7.796875 L 150 7.796875 L 150 150 L 0 150 Z M 0 7.796875 " clip-rule="nonzero"/></clipPath></defs><g clip-path="url(#f79501d67f)"><path fill="#fde35a" d="M 143.390625 17.570312 C 143.390625 16.6875 142.683594 15.972656 141.796875 15.972656 L 8.203125 15.972656 C 7.324219 15.972656 6.609375 16.6875 6.609375 17.570312 L 6.609375 101.734375 C 6.609375 102.617188 7.324219 103.332031 8.203125 103.332031 L 141.796875 103.332031 C 142.683594 103.332031 143.390625 102.617188 143.390625 101.734375 Z M 139.867188 112.804688 C 139.867188 111.929688 139.160156 111.214844 138.273438 111.214844 L 28.375 111.214844 C 27.496094 111.214844 26.78125 111.929688 26.78125 112.804688 C 26.78125 113.6875 27.496094 114.402344 28.375 114.402344 L 138.273438 114.402344 C 139.160156 114.402344 139.867188 113.6875 139.867188 112.804688 Z M 22.132812 112.804688 C 22.132812 109.753906 19.640625 107.269531 16.582031 107.269531 C 13.527344 107.269531 11.035156 109.753906 11.035156 112.804688 C 11.035156 115.863281 13.527344 118.347656 16.582031 118.347656 C 19.640625 118.347656 22.132812 115.863281 22.132812 112.804688 Z M 150 12.863281 L 150 119.726562 C 150 122.363281 147.851562 124.507812 145.214844 124.507812 L 4.785156 124.507812 C 2.148438 124.507812 0 122.363281 0 119.726562 L 0 12.863281 C 0 10.230469 2.148438 8.089844 4.785156 8.089844 L 145.214844 8.089844 C 147.851562 8.089844 150 10.230469 150 12.863281 Z M 9.796875 100.144531 L 140.203125 100.144531 L 140.203125 19.15625 L 9.796875 19.15625 Z M 57.34375 142.691406 L 0 142.691406 L 0 149.503906 L 150 149.503906 L 150 142.691406 Z M 58.941406 127.6875 L 58.941406 139.503906 L 91.058594 139.503906 L 91.058594 127.6875 Z M 18.9375 112.804688 C 18.9375 114.109375 17.882812 115.160156 16.582031 115.160156 C 15.28125 115.160156 14.226562 114.109375 14.226562 112.804688 C 14.226562 111.515625 15.28125 110.453125 16.582031 110.453125 C 17.882812 110.453125 18.9375 111.515625 18.9375 112.804688 " fill-opacity="1" fill-rule="nonzero"/></g><g clip-path="url(#1df470fc94)"><path fill="#000000" d="M 18.972656 113.902344 C 17.722656 113.902344 16.707031 112.890625 16.707031 111.640625 C 16.707031 110.394531 17.722656 109.375 18.972656 109.375 C 20.214844 109.375 21.226562 110.394531 21.226562 111.640625 C 21.226562 112.890625 20.214844 113.902344 18.972656 113.902344 Z M 18.972656 106.3125 C 16.03125 106.3125 13.644531 108.699219 13.644531 111.640625 C 13.644531 114.578125 16.03125 116.964844 18.972656 116.964844 C 21.902344 116.964844 24.285156 114.578125 24.285156 111.640625 C 24.285156 108.699219 21.902344 106.3125 18.972656 106.3125 Z M 137.539062 99.453125 L 12.460938 99.453125 L 12.460938 21.507812 L 137.539062 21.507812 Z M 140.601562 100.984375 L 140.601562 19.976562 C 140.601562 19.132812 139.917969 18.441406 139.070312 18.441406 L 10.929688 18.441406 C 10.082031 18.441406 9.398438 19.132812 9.398438 19.976562 L 9.398438 100.984375 C 9.398438 101.828125 10.082031 102.519531 10.929688 102.519531 L 139.070312 102.519531 C 139.917969 102.519531 140.601562 101.828125 140.601562 100.984375 Z M 135.691406 113.171875 L 30.277344 113.171875 C 29.433594 113.171875 28.746094 112.488281 28.746094 111.640625 C 28.746094 110.796875 29.433594 110.105469 30.277344 110.105469 L 135.691406 110.105469 C 136.542969 110.105469 137.222656 110.796875 137.222656 111.640625 C 137.222656 112.488281 136.542969 113.171875 135.691406 113.171875 Z M 90.40625 137.332031 L 59.59375 137.332031 L 59.59375 125.960938 L 90.40625 125.960938 Z M 146.9375 146.960938 L 3.0625 146.960938 L 3.0625 140.394531 L 146.9375 140.394531 Z M 3.0625 118.300781 L 3.0625 15.449219 C 3.0625 12.914062 5.117188 10.855469 7.652344 10.855469 L 142.347656 10.855469 C 144.882812 10.855469 146.9375 12.914062 146.9375 15.449219 L 146.9375 118.300781 C 146.9375 120.835938 144.882812 122.898438 142.347656 122.898438 L 7.652344 122.898438 C 5.117188 122.898438 3.0625 120.835938 3.0625 118.300781 Z M 142.347656 125.960938 C 146.566406 125.960938 150 122.527344 150 118.300781 L 150 15.449219 C 150 11.226562 146.566406 7.789062 142.347656 7.789062 L 7.652344 7.789062 C 3.433594 7.789062 0 11.226562 0 15.449219 L 0 118.300781 C 0 122.527344 3.433594 125.960938 7.652344 125.960938 L 56.53125 125.960938 L 56.53125 137.332031 L 1.53125 137.332031 C 0.6875 137.332031 0 138.019531 0 138.863281 L 0 148.492188 C 0 149.335938 0.6875 150.027344 1.53125 150.027344 L 148.46875 150.027344 C 149.320312 150.027344 150 149.335938 150 148.492188 L 150 138.863281 C 150 138.019531 149.320312 137.332031 148.46875 137.332031 L 93.46875 137.332031 L 93.46875 125.960938 L 142.347656 125.960938 " fill-opacity="1" fill-rule="nonzero"/></g></svg>