<svg xmlns="http://www.w3.org/2000/svg" xmlns:xlink="http://www.w3.org/1999/xlink" width="500" zoomAndPan="magnify" viewBox="0 0 375 374.999991" height="500" preserveAspectRatio="xMidYMid meet" version="1.0"><defs><clipPath id="id1"><path d="M 74.890625 74.890625 L 299.890625 74.890625 L 299.890625 299.890625 L 74.890625 299.890625 Z M 74.890625 74.890625 " clip-rule="nonzero"/></clipPath><clipPath id="id2"><path d="M 74.890625 74.890625 L 299.890625 74.890625 L 299.890625 299.890625 L 74.890625 299.890625 Z M 74.890625 74.890625 " clip-rule="nonzero"/></clipPath></defs><g clip-path="url(#id1)"><path fill="#ffdd09" d="M 299.890625 187.390625 C 299.890625 189.234375 299.847656 191.074219 299.757812 192.910156 C 299.664062 194.75 299.53125 196.585938 299.351562 198.417969 C 299.167969 200.25 298.945312 202.078125 298.675781 203.898438 C 298.402344 205.71875 298.089844 207.535156 297.730469 209.339844 C 297.371094 211.144531 296.96875 212.941406 296.519531 214.726562 C 296.074219 216.511719 295.582031 218.285156 295.046875 220.046875 C 294.511719 221.808594 293.9375 223.558594 293.316406 225.292969 C 292.695312 227.023438 292.03125 228.742188 291.328125 230.445312 C 290.625 232.144531 289.878906 233.828125 289.089844 235.492188 C 288.304688 237.15625 287.476562 238.800781 286.609375 240.421875 C 285.738281 242.046875 284.832031 243.648438 283.886719 245.226562 C 282.941406 246.808594 281.953125 248.363281 280.933594 249.894531 C 279.910156 251.425781 278.847656 252.929688 277.753906 254.40625 C 276.65625 255.886719 275.523438 257.335938 274.355469 258.761719 C 273.1875 260.183594 271.984375 261.578125 270.75 262.941406 C 269.511719 264.304688 268.242188 265.640625 266.941406 266.941406 C 265.640625 268.242188 264.304688 269.511719 262.941406 270.75 C 261.578125 271.984375 260.183594 273.1875 258.761719 274.355469 C 257.335938 275.523438 255.886719 276.65625 254.40625 277.753906 C 252.929688 278.847656 251.425781 279.910156 249.894531 280.933594 C 248.363281 281.953125 246.808594 282.941406 245.226562 283.886719 C 243.648438 284.832031 242.046875 285.738281 240.421875 286.609375 C 238.800781 287.476562 237.15625 288.304688 235.492188 289.089844 C 233.828125 289.878906 232.144531 290.625 230.445312 291.328125 C 228.742188 292.03125 227.023438 292.695312 225.292969 293.316406 C 223.558594 293.9375 221.808594 294.511719 220.046875 295.046875 C 218.285156 295.582031 216.511719 296.074219 214.726562 296.519531 C 212.941406 296.96875 211.144531 297.371094 209.339844 297.730469 C 207.535156 298.089844 205.71875 298.402344 203.898438 298.675781 C 202.078125 298.945312 200.25 299.167969 198.417969 299.351562 C 196.585938 299.53125 194.75 299.664062 192.910156 299.757812 C 191.074219 299.847656 189.234375 299.890625 187.390625 299.890625 C 185.550781 299.890625 183.710938 299.847656 181.871094 299.757812 C 180.03125 299.664062 178.195312 299.53125 176.363281 299.351562 C 174.53125 299.167969 172.707031 298.945312 170.882812 298.675781 C 169.0625 298.402344 167.25 298.089844 165.445312 297.730469 C 163.636719 297.371094 161.84375 296.96875 160.054688 296.519531 C 158.269531 296.074219 156.496094 295.582031 154.734375 295.046875 C 152.972656 294.511719 151.226562 293.9375 149.492188 293.316406 C 147.757812 292.695312 146.039062 292.03125 144.339844 291.328125 C 142.640625 290.625 140.957031 289.878906 139.292969 289.089844 C 137.628906 288.304688 135.984375 287.476562 134.359375 286.609375 C 132.734375 285.738281 131.132812 284.832031 129.554688 283.886719 C 127.976562 282.941406 126.421875 281.953125 124.890625 280.933594 C 123.359375 279.910156 121.855469 278.847656 120.375 277.753906 C 118.898438 276.65625 117.445312 275.523438 116.023438 274.355469 C 114.597656 273.1875 113.207031 271.984375 111.839844 270.75 C 110.476562 269.511719 109.144531 268.242188 107.84375 266.941406 C 106.539062 265.640625 105.269531 264.304688 104.035156 262.941406 C 102.796875 261.578125 101.597656 260.183594 100.429688 258.761719 C 99.261719 257.335938 98.128906 255.886719 97.03125 254.40625 C 95.933594 252.929688 94.875 251.425781 93.851562 249.894531 C 92.828125 248.363281 91.84375 246.808594 90.898438 245.226562 C 89.949219 243.648438 89.042969 242.046875 88.175781 240.421875 C 87.308594 238.800781 86.480469 237.15625 85.691406 235.492188 C 84.90625 233.828125 84.160156 232.144531 83.457031 230.445312 C 82.75 228.742188 82.089844 227.023438 81.46875 225.292969 C 80.847656 223.558594 80.269531 221.808594 79.734375 220.046875 C 79.203125 218.285156 78.710938 216.511719 78.261719 214.726562 C 77.816406 212.941406 77.414062 211.144531 77.054688 209.339844 C 76.695312 207.535156 76.378906 205.71875 76.109375 203.898438 C 75.839844 202.078125 75.613281 200.25 75.433594 198.417969 C 75.253906 196.585938 75.117188 194.75 75.027344 192.910156 C 74.9375 191.074219 74.890625 189.234375 74.890625 187.390625 C 74.890625 185.550781 74.9375 183.710938 75.027344 181.871094 C 75.117188 180.03125 75.253906 178.195312 75.433594 176.363281 C 75.613281 174.53125 75.839844 172.707031 76.109375 170.882812 C 76.378906 169.0625 76.695312 167.25 77.054688 165.445312 C 77.414062 163.636719 77.816406 161.84375 78.261719 160.054688 C 78.710938 158.269531 79.203125 156.496094 79.734375 154.734375 C 80.269531 152.972656 80.847656 151.226562 81.46875 149.492188 C 82.089844 147.757812 82.75 146.039062 83.457031 144.339844 C 84.160156 142.640625 84.90625 140.957031 85.691406 139.292969 C 86.480469 137.628906 87.308594 135.984375 88.175781 134.359375 C 89.042969 132.734375 89.949219 131.132812 90.898438 129.554688 C 91.84375 127.976562 92.828125 126.421875 93.851562 124.890625 C 94.875 123.359375 95.933594 121.855469 97.03125 120.375 C 98.128906 118.898438 99.261719 117.445312 100.429688 116.023438 C 101.597656 114.597656 102.796875 113.207031 104.035156 111.839844 C 105.269531 110.476562 106.539062 109.144531 107.84375 107.84375 C 109.144531 106.539062 110.476562 105.269531 111.839844 104.035156 C 113.207031 102.796875 114.597656 101.597656 116.023438 100.429688 C 117.445312 99.261719 118.898438 98.128906 120.375 97.03125 C 121.855469 95.933594 123.359375 94.875 124.890625 93.851562 C 126.421875 92.828125 127.976562 91.84375 129.554688 90.898438 C 131.132812 89.949219 132.734375 89.042969 134.359375 88.175781 C 135.984375 87.308594 137.628906 86.480469 139.292969 85.691406 C 140.957031 84.90625 142.640625 84.160156 144.339844 83.457031 C 146.039062 82.75 147.757812 82.089844 149.492188 81.46875 C 151.226562 80.847656 152.972656 80.269531 154.734375 79.734375 C 156.496094 79.203125 158.269531 78.710938 160.054688 78.261719 C 161.84375 77.816406 163.636719 77.414062 165.445312 77.054688 C 167.25 76.695312 169.0625 76.378906 170.882812 76.109375 C 172.707031 75.839844 174.53125 75.613281 176.363281 75.433594 C 178.195312 75.253906 180.03125 75.117188 181.871094 75.027344 C 183.710938 74.9375 185.550781 74.890625 187.390625 74.890625 C 189.234375 74.890625 191.074219 74.9375 192.910156 75.027344 C 194.75 75.117188 196.585938 75.253906 198.417969 75.433594 C 200.25 75.613281 202.078125 75.839844 203.898438 76.109375 C 205.71875 76.378906 207.535156 76.695312 209.339844 77.054688 C 211.144531 77.414062 212.941406 77.816406 214.726562 78.261719 C 216.511719 78.710938 218.285156 79.203125 220.046875 79.734375 C 221.808594 80.269531 223.558594 80.847656 225.292969 81.46875 C 227.023438 82.089844 228.742188 82.75 230.445312 83.457031 C 232.144531 84.160156 233.828125 84.90625 235.492188 85.691406 C 237.15625 86.480469 238.800781 87.308594 240.421875 88.175781 C 242.046875 89.042969 243.648438 89.949219 245.226562 90.898438 C 246.808594 91.84375 248.363281 92.828125 249.894531 93.851562 C 251.425781 94.875 252.929688 95.933594 254.40625 97.03125 C 255.886719 98.128906 257.335938 99.261719 258.761719 100.429688 C 260.183594 101.597656 261.578125 102.796875 262.941406 104.035156 C 264.304688 105.269531 265.640625 106.539062 266.941406 107.84375 C 268.242188 109.144531 269.511719 110.476562 270.75 111.839844 C 271.984375 113.207031 273.1875 114.597656 274.355469 116.023438 C 275.523438 117.445312 276.65625 118.898438 277.753906 120.375 C 278.847656 121.855469 279.910156 123.359375 280.933594 124.890625 C 281.953125 126.421875 282.941406 127.976562 283.886719 129.554688 C 284.832031 131.132812 285.738281 132.734375 286.609375 134.359375 C 287.476562 135.984375 288.304688 137.628906 289.089844 139.292969 C 289.878906 140.957031 290.625 142.640625 291.328125 144.339844 C 292.03125 146.039062 292.695312 147.757812 293.316406 149.492188 C 293.9375 151.226562 294.511719 152.972656 295.046875 154.734375 C 295.582031 156.496094 296.074219 158.269531 296.519531 160.054688 C 296.96875 161.84375 297.371094 163.636719 297.730469 165.445312 C 298.089844 167.25 298.402344 169.0625 298.675781 170.882812 C 298.945312 172.707031 299.167969 174.53125 299.351562 176.363281 C 299.53125 178.195312 299.664062 180.03125 299.757812 181.871094 C 299.847656 183.710938 299.890625 185.550781 299.890625 187.390625 Z M 299.890625 187.390625 " fill-opacity="1" fill-rule="nonzero"/></g><path fill="#000000" d="M 166.804688 246.734375 C 216.699219 246.734375 243.980469 205.390625 243.980469 169.558594 C 243.980469 168.378906 243.980469 167.199219 243.921875 166.074219 C 249.210938 162.246094 253.824219 157.464844 257.480469 152.011719 C 252.640625 154.148438 247.410156 155.609375 241.898438 156.285156 C 247.523438 152.910156 251.796875 147.621094 253.824219 141.265625 C 248.589844 144.359375 242.796875 146.609375 236.609375 147.847656 C 231.660156 142.558594 224.628906 139.296875 216.808594 139.296875 C 201.847656 139.296875 189.699219 151.449219 189.699219 166.410156 C 189.699219 168.546875 189.921875 170.628906 190.429688 172.597656 C 167.871094 171.472656 147.902344 160.671875 134.515625 144.246094 C 132.210938 148.242188 130.859375 152.910156 130.859375 157.859375 C 130.859375 167.253906 135.640625 175.578125 142.953125 180.417969 C 138.511719 180.304688 134.347656 179.066406 130.691406 177.042969 C 130.691406 177.152344 130.691406 177.265625 130.691406 177.378906 C 130.691406 190.542969 140.027344 201.453125 152.460938 203.984375 C 150.210938 204.605469 147.792969 204.941406 145.316406 204.941406 C 143.574219 204.941406 141.886719 204.773438 140.199219 204.433594 C 143.628906 215.234375 153.640625 223.054688 165.511719 223.277344 C 156.230469 230.535156 144.527344 234.867188 131.816406 234.867188 C 129.621094 234.867188 127.484375 234.753906 125.347656 234.472656 C 137.214844 242.234375 151.503906 246.734375 166.804688 246.734375 " fill-opacity="1" fill-rule="nonzero"/><g clip-path="url(#id2)"><path fill="#000000" d="M 187.390625 74.890625 C 125.261719 74.890625 74.890625 125.257812 74.890625 187.390625 C 74.890625 249.519531 125.261719 299.890625 187.390625 299.890625 C 249.519531 299.890625 299.890625 249.519531 299.890625 187.390625 C 299.890625 125.257812 249.519531 74.890625 187.390625 74.890625 Z M 260.3125 260.304688 C 250.839844 269.78125 239.808594 277.21875 227.53125 282.410156 C 214.824219 287.785156 201.316406 290.511719 187.390625 290.511719 C 173.464844 290.511719 159.960938 287.785156 147.253906 282.410156 C 134.972656 277.21875 123.945312 269.78125 114.46875 260.304688 C 104.996094 250.835938 97.5625 239.804688 92.367188 227.527344 C 86.988281 214.816406 84.265625 201.316406 84.265625 187.390625 C 84.265625 173.460938 86.988281 159.960938 92.367188 147.25 C 97.5625 134.972656 104.996094 123.9375 114.46875 114.46875 C 123.945312 104.996094 134.972656 97.558594 147.253906 92.359375 C 159.960938 86.988281 173.464844 84.265625 187.390625 84.265625 C 201.316406 84.265625 214.824219 86.988281 227.53125 92.359375 C 239.808594 97.558594 250.835938 104.996094 260.3125 114.46875 C 269.789062 123.9375 277.21875 134.972656 282.417969 147.25 C 287.792969 159.960938 290.511719 173.460938 290.511719 187.390625 C 290.511719 201.316406 287.792969 214.816406 282.417969 227.527344 C 277.21875 239.804688 269.789062 250.835938 260.3125 260.304688 Z M 260.3125 260.304688 " fill-opacity="1" fill-rule="nonzero"/></g></svg>